<svg width="1219" height="182" viewBox="0 0 1219 182" fill="none" xmlns="http://www.w3.org/2000/svg">
<line x1="44.0035" y1="41.083" x2="42.0035" y2="17.083" stroke="#2458A7" stroke-width="2"/>
<line x1="65.0194" y1="83.8039" x2="76.0194" y2="28.8039" stroke="#2458A7" stroke-width="2"/>
<line x1="77.2137" y1="30.6178" x2="66.2137" y2="16.6178" stroke="#2458A7" stroke-width="2"/>
<line x1="71.9545" y1="1.29827" x2="66.9545" y2="17.2983" stroke="#2458A7" stroke-width="2"/>
<line x1="41.9616" y1="19.0007" x2="67.9616" y2="18.0007" stroke="#2458A7" stroke-width="2"/>
<line x1="71.9844" y1="1.82421" x2="76.9844" y2="29.8242" stroke="#2458A7" stroke-width="2"/>
<line x1="76.9908" y1="28.8649" x2="79.9908" y2="50.8649" stroke="#2458A7" stroke-width="2"/>
<line x1="79.0005" y1="81.9688" x2="80.0005" y2="49.9688" stroke="#2458A7" stroke-width="2"/>
<line x1="103.127" y1="78.9919" x2="64.1272" y2="83.9919" stroke="#2458A7" stroke-width="2"/>
<line x1="102.232" y1="78.6402" x2="97.2318" y2="72.6402" stroke="#2458A7" stroke-width="2"/>
<line x1="232.978" y1="75.9998" x2="97.9778" y2="72.9998" stroke="#2458A7" stroke-width="2"/>
<line x1="102.707" y1="64.2929" x2="107.707" y2="69.2929" stroke="#2458A7" stroke-width="2"/>
<line x1="92.7385" y1="39.3257" x2="113.738" y2="62.3257" stroke="#2458A7" stroke-width="2"/>
<line x1="92.2026" y1="39.0207" x2="121.203" y2="45.0207" stroke="#2458A7" stroke-width="2"/>
<line x1="113.077" y1="62.6154" x2="123.077" y2="38.6154" stroke="#2458A7" stroke-width="2"/>
<line x1="114.651" y1="33.2407" x2="121.651" y2="39.2407" stroke="#2458A7" stroke-width="2"/>
<line x1="115.105" y1="33.0055" x2="134.105" y2="35.0055" stroke="#2458A7" stroke-width="2"/>
<line x1="121.524" y1="27.1483" x2="134.524" y2="35.1483" stroke="#2458A7" stroke-width="2"/>
<line x1="121.196" y1="27.0194" x2="141.196" y2="31.0194" stroke="#2458A7" stroke-width="2"/>
<line x1="141" y1="19" x2="141" y2="33" stroke="#2458A7" stroke-width="2"/>
<line x1="148.084" y1="35.4008" x2="141.084" y2="19.4008" stroke="#2458A7" stroke-width="2"/>
<line x1="147.132" y1="35.5039" x2="155.132" y2="21.5039" stroke="#2458A7" stroke-width="2"/>
<line x1="156.001" y1="41.0526" x2="155.001" y2="22.0526" stroke="#2458A7" stroke-width="2"/>
<line x1="104.192" y1="65.0186" x2="150.192" y2="74.0186" stroke="#2458A7" stroke-width="2"/>
<line x1="212.832" y1="24.5547" x2="208.832" y2="30.5547" stroke="#2458A7" stroke-width="2"/>
<path d="M222 11.5L214.5 21.5" stroke="#2458A7" stroke-width="2"/>
<line x1="230.848" y1="23.9884" x2="204.848" y2="19.9884" stroke="#2458A7" stroke-width="2"/>
<line x1="229.99" y1="23.8586" x2="231.99" y2="37.8586" stroke="#2458A7" stroke-width="2"/>
<line x1="205.547" y1="20.163" x2="231.547" y2="37.163" stroke="#2458A7" stroke-width="2"/>
<line x1="190.275" y1="26.0385" x2="232.275" y2="38.0385" stroke="#2458A7" stroke-width="2"/>
<line x1="230.005" y1="55.8953" x2="232.005" y2="36.8953" stroke="#2458A7" stroke-width="2"/>
<line x1="230.4" y1="55.8" x2="190.4" y2="25.8" stroke="#2458A7" stroke-width="2"/>
<line x1="214.757" y1="59.0299" x2="230.757" y2="55.0299" stroke="#2458A7" stroke-width="2"/>
<line x1="217.226" y1="58.6332" x2="190.226" y2="25.6332" stroke="#2458A7" stroke-width="2"/>
<line x1="217.678" y1="57.7348" x2="204.678" y2="69.7348" stroke="#2458A7" stroke-width="2"/>
<line x1="121.194" y1="39.019" x2="217.194" y2="58.019" stroke="#2458A7" stroke-width="2"/>
<line x1="140.52" y1="31.1456" x2="214.52" y2="76.1456" stroke="#2458A7" stroke-width="2"/>
<line x1="210.263" y1="99.3243" x2="232.263" y2="75.3243" stroke="#2458A7" stroke-width="2"/>
<line x1="210.641" y1="98.7525" x2="203.919" y2="114.395" stroke="#2458A7" stroke-width="2"/>
<line x1="149.568" y1="75.1773" x2="204.568" y2="113.177" stroke="#2458A7" stroke-width="2"/>
<line x1="191.244" y1="128.345" x2="204.244" y2="113.345" stroke="#2458A7" stroke-width="2"/>
<path d="M192 128L149 74" stroke="#2458A7" stroke-width="2"/>
<line x1="191.447" y1="127.894" x2="175.447" y2="135.894" stroke="#2458A7" stroke-width="2"/>
<line x1="175.588" y1="135.809" x2="153.588" y2="151.809" stroke="#2458A7" stroke-width="2"/>
<path d="M102 78L153.82 151.427" stroke="#2458A7" stroke-width="2"/>
<line x1="102.951" y1="78.6909" x2="128.951" y2="158.691" stroke="#2458A7" stroke-width="2"/>
<line x1="188.148" y1="181.476" x2="196.148" y2="168.476" stroke="#2458A7" stroke-width="2"/>
<line x1="217.671" y1="176.944" x2="194.671" y2="168.945" stroke="#2458A7" stroke-width="2"/>
<line x1="185.035" y1="171.261" x2="175.035" y2="134.261" stroke="#2458A7" stroke-width="2"/>
<line x1="187.868" y1="181.009" x2="217.868" y2="177.009" stroke="#2458A7" stroke-width="2"/>
<line x1="183.874" y1="171.514" x2="188.874" y2="180.514" stroke="#2458A7" stroke-width="2"/>
<line x1="184.713" y1="172.042" x2="194.713" y2="169.042" stroke="#2458A7" stroke-width="2"/>
<line x1="185.445" y1="172.832" x2="152.445" y2="150.832" stroke="#2458A7" stroke-width="2"/>
<line x1="154.282" y1="150.959" x2="137.282" y2="155.959" stroke="#2458A7" stroke-width="2"/>
<line x1="127.713" y1="159.042" x2="137.713" y2="156.042" stroke="#2458A7" stroke-width="2"/>
<line x1="124.03" y1="178.757" x2="129.03" y2="158.757" stroke="#2458A7" stroke-width="2"/>
<line x1="125.141" y1="177.99" x2="104.141" y2="180.99" stroke="#2458A7" stroke-width="2"/>
<line x1="113.707" y1="171.707" x2="104.707" y2="180.707" stroke="#2458A7" stroke-width="2"/>
<line x1="112.447" y1="172.106" x2="124.447" y2="178.106" stroke="#2458A7" stroke-width="2"/>
<line x1="112.79" y1="172.022" x2="126.79" y2="169.022" stroke="#2458A7" stroke-width="2"/>
<line x1="123.994" y1="151.89" x2="125.994" y2="169.89" stroke="#2458A7" stroke-width="2"/>
<line x1="98.74" y1="159.034" x2="124.74" y2="152.034" stroke="#2458A7" stroke-width="2"/>
<line x1="99.2779" y1="159.387" x2="77.7559" y2="153.97" stroke="#2458A7" stroke-width="2"/>
<line x1="87.1381" y1="170.507" x2="77.1381" y2="153.507" stroke="#2458A7" stroke-width="2"/>
<line x1="86.9191" y1="169.394" x2="83.9191" y2="176.394" stroke="#2458A7" stroke-width="2"/>
<line x1="64" y1="176" x2="84" y2="176" stroke="#2458A7" stroke-width="2"/>
<line x1="63.4" y1="176.2" x2="75.4" y2="167.2" stroke="#2458A7" stroke-width="2"/>
<line x1="83.2929" y1="175.707" x2="75.2929" y2="167.707" stroke="#2458A7" stroke-width="2"/>
<line x1="87.8479" y1="169.988" x2="74.8479" y2="167.988" stroke="#2458A7" stroke-width="2"/>
<line x1="87.3291" y1="169.742" x2="66.3291" y2="150.742" stroke="#2458A7" stroke-width="2"/>
<line x1="77.7369" y1="153.965" x2="66.7369" y2="150.965" stroke="#2458A7" stroke-width="2"/>
<line x1="102.897" y1="79.4422" x2="67.8969" y2="150.442" stroke="#2458A7" stroke-width="2"/>
<line x1="62.507" y1="142.862" x2="45.507" y2="152.862" stroke="#2458A7" stroke-width="2"/>
<path d="M16 137.5L46.4856 152.126" stroke="#2458A7" stroke-width="2"/>
<line x1="67.1331" y1="151.498" x2="44.1331" y2="111.498" stroke="#2458A7" stroke-width="2"/>
<line x1="46.0011" y1="152.048" x2="44.0011" y2="110.048" stroke="#2458A7" stroke-width="2"/>
<line x1="22.129" y1="149.509" x2="44.129" y2="110.509" stroke="#2458A7" stroke-width="2"/>
<line x1="23" y1="149" x2="12" y2="149" stroke="#2458A7" stroke-width="2"/>
<line x1="1.38462" y1="144.077" x2="13.3846" y2="149.077" stroke="#2458A7" stroke-width="2"/>
<line x1="0.599181" y1="144.084" x2="16.5992" y2="137.084" stroke="#2458A7" stroke-width="2"/>
<line x1="12.0513" y1="149.684" x2="16.0513" y2="137.684" stroke="#2458A7" stroke-width="2"/>
<line x1="23.1913" y1="148.588" x2="15.1913" y2="137.588" stroke="#2458A7" stroke-width="2"/>
<path d="M26.5 143L44.1232 110.519" stroke="#2458A7" stroke-width="2"/>
<line x1="98.0187" y1="160.192" x2="88.0187" y2="109.192" stroke="#2458A7" stroke-width="2"/>
<line x1="64.7564" y1="83.3458" x2="128.756" y2="157.346" stroke="#2458A7" stroke-width="2"/>
<line x1="107.696" y1="69.2824" x2="175.696" y2="135.282" stroke="#2458A7" stroke-width="2"/>
<line x1="148.914" y1="74.5953" x2="175.914" y2="135.595" stroke="#2458A7" stroke-width="2"/>
<line x1="210.013" y1="99.842" x2="214.013" y2="74.842" stroke="#2458A7" stroke-width="2"/>
<line x1="203.243" y1="39.9701" x2="103.243" y2="64.9701" stroke="#2458A7" stroke-width="2"/>
<line x1="210.608" y1="99.9199" x2="149.608" y2="73.9199" stroke="#2458A7" stroke-width="2"/>
<line x1="168.807" y1="48.59" x2="149.807" y2="74.59" stroke="#2458A7" stroke-width="2"/>
<line x1="230.2" y1="23.6" x2="221.2" y2="11.6" stroke="#2458A7" stroke-width="2"/>
<line x1="121.67" y1="39.0561" x2="141.67" y2="32.0561" stroke="#2458A7" stroke-width="2"/>
<line x1="43.2165" y1="111.379" x2="66.2165" y2="82.3786" stroke="#2458A7" stroke-width="2"/>
<line x1="88.0227" y1="110" x2="44.0227" y2="111" stroke="#2458A7" stroke-width="2"/>
<line x1="79.0246" y1="82.2203" x2="72.0246" y2="51.2203" stroke="#2458A7" stroke-width="2"/>
<line x1="70.876" y1="51.0077" x2="78.876" y2="50.0077" stroke="#2458A7" stroke-width="2"/>
<line x1="72.4808" y1="0.876812" x2="41.4808" y2="17.8768" stroke="#2458A7" stroke-width="2"/>
<line x1="44.2929" y1="40.2929" x2="66.2929" y2="18.2929" stroke="#2458A7" stroke-width="2"/>
<path d="M375.09 47.5V135H365.965V94.625H311.215V135H301.965V47.5H311.215V86.5H365.965V47.5H375.09ZM424.774 68.75C433.358 68.75 439.941 70.9167 444.524 75.25C449.108 79.5 451.399 85.8333 451.399 94.25V135H442.899V124.75C440.899 128.167 437.941 130.833 434.024 132.75C430.191 134.667 425.608 135.625 420.274 135.625C412.941 135.625 407.108 133.875 402.774 130.375C398.441 126.875 396.274 122.25 396.274 116.5C396.274 110.917 398.274 106.417 402.274 103C406.358 99.5833 412.816 97.875 421.649 97.875H442.524V93.875C442.524 88.2083 440.941 83.9167 437.774 81C434.608 78 429.983 76.5 423.899 76.5C419.733 76.5 415.733 77.2083 411.899 78.625C408.066 79.9583 404.774 81.8333 402.024 84.25L398.024 77.625C401.358 74.7917 405.358 72.625 410.024 71.125C414.691 69.5417 419.608 68.75 424.774 68.75ZM421.649 128.625C426.649 128.625 430.941 127.5 434.524 125.25C438.108 122.917 440.774 119.583 442.524 115.25V104.5H421.899C410.649 104.5 405.024 108.417 405.024 116.25C405.024 120.083 406.483 123.125 409.399 125.375C412.316 127.542 416.399 128.625 421.649 128.625ZM499.88 102L484.38 116.25V135H475.505V42.25H484.38V105.125L523.63 69.25H534.63L506.505 96.125L537.255 135H526.38L499.88 102ZM608.607 69.25V135H600.107V123C597.774 127 594.566 130.125 590.482 132.375C586.399 134.542 581.732 135.625 576.482 135.625C567.899 135.625 561.107 133.25 556.107 128.5C551.191 123.667 548.732 116.625 548.732 107.375V69.25H557.607V106.5C557.607 113.417 559.316 118.667 562.732 122.25C566.149 125.833 571.024 127.625 577.357 127.625C584.274 127.625 589.732 125.542 593.732 121.375C597.732 117.125 599.732 111.25 599.732 103.75V69.25H608.607ZM666.964 68.75C675.214 68.75 681.756 71.1667 686.589 76C691.506 80.75 693.964 87.7083 693.964 96.875V135H685.089V97.75C685.089 90.9167 683.381 85.7083 679.964 82.125C676.547 78.5417 671.672 76.75 665.339 76.75C658.256 76.75 652.631 78.875 648.464 83.125C644.381 87.2917 642.339 93.0833 642.339 100.5V135H633.464V69.25H641.964V81.375C644.381 77.375 647.714 74.2917 651.964 72.125C656.297 69.875 661.297 68.75 666.964 68.75ZM741.059 68.75C749.642 68.75 756.225 70.9167 760.809 75.25C765.392 79.5 767.684 85.8333 767.684 94.25V135H759.184V124.75C757.184 128.167 754.225 130.833 750.309 132.75C746.475 134.667 741.892 135.625 736.559 135.625C729.225 135.625 723.392 133.875 719.059 130.375C714.725 126.875 712.559 122.25 712.559 116.5C712.559 110.917 714.559 106.417 718.559 103C722.642 99.5833 729.1 97.875 737.934 97.875H758.809V93.875C758.809 88.2083 757.225 83.9167 754.059 81C750.892 78 746.267 76.5 740.184 76.5C736.017 76.5 732.017 77.2083 728.184 78.625C724.35 79.9583 721.059 81.8333 718.309 84.25L714.309 77.625C717.642 74.7917 721.642 72.625 726.309 71.125C730.975 69.5417 735.892 68.75 741.059 68.75ZM737.934 128.625C742.934 128.625 747.225 127.5 750.809 125.25C754.392 122.917 757.059 119.583 758.809 115.25V104.5H738.184C726.934 104.5 721.309 108.417 721.309 116.25C721.309 120.083 722.767 123.125 725.684 125.375C728.6 127.542 732.684 128.625 737.934 128.625ZM793.664 47.5H829.289C838.539 47.5 846.706 49.375 853.789 53.125C860.872 56.7917 866.372 61.9583 870.289 68.625C874.206 75.2083 876.164 82.75 876.164 91.25C876.164 99.75 874.206 107.333 870.289 114C866.372 120.583 860.872 125.75 853.789 129.5C846.706 133.167 838.539 135 829.289 135H793.664V47.5ZM828.789 127C836.456 127 843.164 125.5 848.914 122.5C854.664 119.417 859.122 115.208 862.289 109.875C865.456 104.458 867.039 98.25 867.039 91.25C867.039 84.25 865.456 78.0833 862.289 72.75C859.122 67.3333 854.664 63.125 848.914 60.125C843.164 57.0417 836.456 55.5 828.789 55.5H802.914V127H828.789ZM918.061 68.75C926.644 68.75 933.227 70.9167 937.811 75.25C942.394 79.5 944.686 85.8333 944.686 94.25V135H936.186V124.75C934.186 128.167 931.227 130.833 927.311 132.75C923.477 134.667 918.894 135.625 913.561 135.625C906.227 135.625 900.394 133.875 896.061 130.375C891.727 126.875 889.561 122.25 889.561 116.5C889.561 110.917 891.561 106.417 895.561 103C899.644 99.5833 906.102 97.875 914.936 97.875H935.811V93.875C935.811 88.2083 934.227 83.9167 931.061 81C927.894 78 923.269 76.5 917.186 76.5C913.019 76.5 909.019 77.2083 905.186 78.625C901.352 79.9583 898.061 81.8333 895.311 84.25L891.311 77.625C894.644 74.7917 898.644 72.625 903.311 71.125C907.977 69.5417 912.894 68.75 918.061 68.75ZM914.936 128.625C919.936 128.625 924.227 127.5 927.811 125.25C931.394 122.917 934.061 119.583 935.811 115.25V104.5H915.186C903.936 104.5 898.311 108.417 898.311 116.25C898.311 120.083 899.769 123.125 902.686 125.375C905.602 127.542 909.686 128.625 914.936 128.625ZM1003.42 131C1001.75 132.5 999.666 133.667 997.166 134.5C994.749 135.25 992.208 135.625 989.541 135.625C983.374 135.625 978.624 133.958 975.291 130.625C971.958 127.292 970.291 122.583 970.291 116.5V76.75H958.541V69.25H970.291V54.875H979.166V69.25H999.166V76.75H979.166V116C979.166 119.917 980.124 122.917 982.041 125C984.041 127 986.874 128 990.541 128C992.374 128 994.124 127.708 995.791 127.125C997.541 126.542 999.041 125.708 1000.29 124.625L1003.42 131ZM1042.57 68.75C1051.16 68.75 1057.74 70.9167 1062.32 75.25C1066.91 79.5 1069.2 85.8333 1069.2 94.25V135H1060.7V124.75C1058.7 128.167 1055.74 130.833 1051.82 132.75C1047.99 134.667 1043.41 135.625 1038.07 135.625C1030.74 135.625 1024.91 133.875 1020.57 130.375C1016.24 126.875 1014.07 122.25 1014.07 116.5C1014.07 110.917 1016.07 106.417 1020.07 103C1024.16 99.5833 1030.61 97.875 1039.45 97.875H1060.32V93.875C1060.32 88.2083 1058.74 83.9167 1055.57 81C1052.41 78 1047.78 76.5 1041.7 76.5C1037.53 76.5 1033.53 77.2083 1029.7 78.625C1025.86 79.9583 1022.57 81.8333 1019.82 84.25L1015.82 77.625C1019.16 74.7917 1023.16 72.625 1027.82 71.125C1032.49 69.5417 1037.41 68.75 1042.57 68.75ZM1039.45 128.625C1044.45 128.625 1048.74 127.5 1052.32 125.25C1055.91 122.917 1058.57 119.583 1060.32 115.25V104.5H1039.7C1028.45 104.5 1022.82 108.417 1022.82 116.25C1022.82 120.083 1024.28 123.125 1027.2 125.375C1030.11 127.542 1034.2 128.625 1039.45 128.625ZM1127.93 131C1126.26 132.5 1124.18 133.667 1121.68 134.5C1119.26 135.25 1116.72 135.625 1114.05 135.625C1107.89 135.625 1103.14 133.958 1099.8 130.625C1096.47 127.292 1094.8 122.583 1094.8 116.5V76.75H1083.05V69.25H1094.8V54.875H1103.68V69.25H1123.68V76.75H1103.68V116C1103.68 119.917 1104.64 122.917 1106.55 125C1108.55 127 1111.39 128 1115.05 128C1116.89 128 1118.64 127.708 1120.3 127.125C1122.05 126.542 1123.55 125.708 1124.8 124.625L1127.93 131ZM1167.08 68.75C1175.67 68.75 1182.25 70.9167 1186.83 75.25C1191.42 79.5 1193.71 85.8333 1193.71 94.25V135H1185.21V124.75C1183.21 128.167 1180.25 130.833 1176.33 132.75C1172.5 134.667 1167.92 135.625 1162.58 135.625C1155.25 135.625 1149.42 133.875 1145.08 130.375C1140.75 126.875 1138.58 122.25 1138.58 116.5C1138.58 110.917 1140.58 106.417 1144.58 103C1148.67 99.5833 1155.13 97.875 1163.96 97.875H1184.83V93.875C1184.83 88.2083 1183.25 83.9167 1180.08 81C1176.92 78 1172.29 76.5 1166.21 76.5C1162.04 76.5 1158.04 77.2083 1154.21 78.625C1150.38 79.9583 1147.08 81.8333 1144.33 84.25L1140.33 77.625C1143.67 74.7917 1147.67 72.625 1152.33 71.125C1157 69.5417 1161.92 68.75 1167.08 68.75ZM1163.96 128.625C1168.96 128.625 1173.25 127.5 1176.83 125.25C1180.42 122.917 1183.08 119.583 1184.83 115.25V104.5H1164.21C1152.96 104.5 1147.33 108.417 1147.33 116.25C1147.33 120.083 1148.79 123.125 1151.71 125.375C1154.63 127.542 1158.71 128.625 1163.96 128.625Z" fill="#2E8DDC"/>
</svg>
