<svg width="233" height="182" viewBox="0 0 233 182" fill="none" xmlns="http://www.w3.org/2000/svg">
<line x1="44.0035" y1="41.083" x2="42.0035" y2="17.083" stroke="white" stroke-width="2"/>
<line x1="65.0194" y1="83.8039" x2="76.0194" y2="28.8039" stroke="white" stroke-width="2"/>
<line x1="77.2137" y1="30.6178" x2="66.2137" y2="16.6178" stroke="white" stroke-width="2"/>
<line x1="71.9545" y1="1.29827" x2="66.9545" y2="17.2983" stroke="white" stroke-width="2"/>
<line x1="41.9616" y1="19.0007" x2="67.9616" y2="18.0007" stroke="white" stroke-width="2"/>
<line x1="71.9844" y1="1.82421" x2="76.9844" y2="29.8242" stroke="white" stroke-width="2"/>
<line x1="76.9908" y1="28.8649" x2="79.9908" y2="50.8649" stroke="white" stroke-width="2"/>
<line x1="79.0005" y1="81.9688" x2="80.0005" y2="49.9688" stroke="white" stroke-width="2"/>
<line x1="103.127" y1="78.9919" x2="64.1272" y2="83.9919" stroke="white" stroke-width="2"/>
<line x1="102.232" y1="78.6402" x2="97.2318" y2="72.6402" stroke="white" stroke-width="2"/>
<line x1="232.978" y1="75.9998" x2="97.9778" y2="72.9998" stroke="white" stroke-width="2"/>
<line x1="102.707" y1="64.2929" x2="107.707" y2="69.2929" stroke="white" stroke-width="2"/>
<line x1="92.7385" y1="39.3257" x2="113.738" y2="62.3257" stroke="white" stroke-width="2"/>
<line x1="92.2026" y1="39.0207" x2="121.203" y2="45.0207" stroke="white" stroke-width="2"/>
<line x1="113.077" y1="62.6154" x2="123.077" y2="38.6154" stroke="white" stroke-width="2"/>
<line x1="114.651" y1="33.2407" x2="121.651" y2="39.2407" stroke="white" stroke-width="2"/>
<line x1="115.105" y1="33.0055" x2="134.105" y2="35.0055" stroke="white" stroke-width="2"/>
<line x1="121.524" y1="27.1483" x2="134.524" y2="35.1483" stroke="white" stroke-width="2"/>
<line x1="121.196" y1="27.0194" x2="141.196" y2="31.0194" stroke="white" stroke-width="2"/>
<line x1="141" y1="19" x2="141" y2="33" stroke="white" stroke-width="2"/>
<line x1="148.084" y1="35.4008" x2="141.084" y2="19.4008" stroke="white" stroke-width="2"/>
<line x1="147.132" y1="35.5039" x2="155.132" y2="21.5039" stroke="white" stroke-width="2"/>
<line x1="156.001" y1="41.0526" x2="155.001" y2="22.0526" stroke="white" stroke-width="2"/>
<line x1="104.192" y1="65.0186" x2="150.192" y2="74.0186" stroke="white" stroke-width="2"/>
<line x1="212.832" y1="24.5547" x2="208.832" y2="30.5547" stroke="white" stroke-width="2"/>
<path d="M222 11.5L214.5 21.5" stroke="white" stroke-width="2"/>
<line x1="230.848" y1="23.9884" x2="204.848" y2="19.9884" stroke="white" stroke-width="2"/>
<line x1="229.99" y1="23.8586" x2="231.99" y2="37.8586" stroke="white" stroke-width="2"/>
<line x1="205.547" y1="20.163" x2="231.547" y2="37.163" stroke="white" stroke-width="2"/>
<line x1="190.275" y1="26.0385" x2="232.275" y2="38.0385" stroke="white" stroke-width="2"/>
<line x1="230.005" y1="55.8953" x2="232.005" y2="36.8953" stroke="white" stroke-width="2"/>
<line x1="230.4" y1="55.8" x2="190.4" y2="25.8" stroke="white" stroke-width="2"/>
<line x1="214.757" y1="59.0299" x2="230.757" y2="55.0299" stroke="white" stroke-width="2"/>
<line x1="217.226" y1="58.6332" x2="190.226" y2="25.6332" stroke="white" stroke-width="2"/>
<line x1="217.678" y1="57.7348" x2="204.678" y2="69.7348" stroke="white" stroke-width="2"/>
<line x1="121.194" y1="39.019" x2="217.194" y2="58.019" stroke="white" stroke-width="2"/>
<line x1="140.52" y1="31.1456" x2="214.52" y2="76.1456" stroke="white" stroke-width="2"/>
<line x1="210.263" y1="99.3243" x2="232.263" y2="75.3243" stroke="white" stroke-width="2"/>
<line x1="210.641" y1="98.7525" x2="203.919" y2="114.395" stroke="white" stroke-width="2"/>
<line x1="149.568" y1="75.1773" x2="204.568" y2="113.177" stroke="white" stroke-width="2"/>
<line x1="191.244" y1="128.345" x2="204.244" y2="113.345" stroke="white" stroke-width="2"/>
<path d="M192 128L149 74" stroke="white" stroke-width="2"/>
<line x1="191.447" y1="127.894" x2="175.447" y2="135.894" stroke="white" stroke-width="2"/>
<line x1="175.588" y1="135.809" x2="153.588" y2="151.809" stroke="white" stroke-width="2"/>
<path d="M102 78L153.82 151.427" stroke="white" stroke-width="2"/>
<line x1="102.951" y1="78.6909" x2="128.951" y2="158.691" stroke="white" stroke-width="2"/>
<line x1="188.148" y1="181.476" x2="196.148" y2="168.476" stroke="white" stroke-width="2"/>
<line x1="217.671" y1="176.944" x2="194.671" y2="168.945" stroke="white" stroke-width="2"/>
<line x1="185.035" y1="171.261" x2="175.035" y2="134.261" stroke="white" stroke-width="2"/>
<line x1="187.868" y1="181.009" x2="217.868" y2="177.009" stroke="white" stroke-width="2"/>
<line x1="183.874" y1="171.514" x2="188.874" y2="180.514" stroke="white" stroke-width="2"/>
<line x1="184.713" y1="172.042" x2="194.713" y2="169.042" stroke="white" stroke-width="2"/>
<line x1="185.445" y1="172.832" x2="152.445" y2="150.832" stroke="white" stroke-width="2"/>
<line x1="154.282" y1="150.959" x2="137.282" y2="155.959" stroke="white" stroke-width="2"/>
<line x1="127.713" y1="159.042" x2="137.713" y2="156.042" stroke="white" stroke-width="2"/>
<line x1="124.03" y1="178.757" x2="129.03" y2="158.757" stroke="white" stroke-width="2"/>
<line x1="125.141" y1="177.99" x2="104.141" y2="180.99" stroke="white" stroke-width="2"/>
<line x1="113.707" y1="171.707" x2="104.707" y2="180.707" stroke="white" stroke-width="2"/>
<line x1="112.447" y1="172.106" x2="124.447" y2="178.106" stroke="white" stroke-width="2"/>
<line x1="112.79" y1="172.022" x2="126.79" y2="169.022" stroke="white" stroke-width="2"/>
<line x1="123.994" y1="151.89" x2="125.994" y2="169.89" stroke="white" stroke-width="2"/>
<line x1="98.74" y1="159.034" x2="124.74" y2="152.034" stroke="white" stroke-width="2"/>
<line x1="99.2779" y1="159.387" x2="77.7559" y2="153.97" stroke="white" stroke-width="2"/>
<line x1="87.1381" y1="170.507" x2="77.1381" y2="153.507" stroke="white" stroke-width="2"/>
<line x1="86.9191" y1="169.394" x2="83.9191" y2="176.394" stroke="white" stroke-width="2"/>
<line x1="64" y1="176" x2="84" y2="176" stroke="white" stroke-width="2"/>
<line x1="63.4" y1="176.2" x2="75.4" y2="167.2" stroke="white" stroke-width="2"/>
<line x1="83.2929" y1="175.707" x2="75.2929" y2="167.707" stroke="white" stroke-width="2"/>
<line x1="87.8479" y1="169.988" x2="74.8479" y2="167.988" stroke="white" stroke-width="2"/>
<line x1="87.3291" y1="169.742" x2="66.3291" y2="150.742" stroke="white" stroke-width="2"/>
<line x1="77.7369" y1="153.965" x2="66.7369" y2="150.965" stroke="white" stroke-width="2"/>
<line x1="102.897" y1="79.4422" x2="67.8969" y2="150.442" stroke="white" stroke-width="2"/>
<line x1="62.507" y1="142.862" x2="45.507" y2="152.862" stroke="white" stroke-width="2"/>
<path d="M16 137.5L46.4856 152.126" stroke="white" stroke-width="2"/>
<line x1="67.1331" y1="151.498" x2="44.1331" y2="111.498" stroke="white" stroke-width="2"/>
<line x1="46.0011" y1="152.048" x2="44.0011" y2="110.048" stroke="white" stroke-width="2"/>
<line x1="22.129" y1="149.509" x2="44.129" y2="110.509" stroke="white" stroke-width="2"/>
<line x1="23" y1="149" x2="12" y2="149" stroke="white" stroke-width="2"/>
<line x1="1.38462" y1="144.077" x2="13.3846" y2="149.077" stroke="white" stroke-width="2"/>
<line x1="0.599181" y1="144.084" x2="16.5992" y2="137.084" stroke="white" stroke-width="2"/>
<line x1="12.0513" y1="149.684" x2="16.0513" y2="137.684" stroke="white" stroke-width="2"/>
<line x1="23.1913" y1="148.588" x2="15.1913" y2="137.588" stroke="white" stroke-width="2"/>
<path d="M26.5 143L44.1232 110.519" stroke="white" stroke-width="2"/>
<line x1="98.0187" y1="160.192" x2="88.0187" y2="109.192" stroke="white" stroke-width="2"/>
<line x1="64.7564" y1="83.3458" x2="128.756" y2="157.346" stroke="white" stroke-width="2"/>
<line x1="107.696" y1="69.2824" x2="175.696" y2="135.282" stroke="white" stroke-width="2"/>
<line x1="148.914" y1="74.5953" x2="175.914" y2="135.595" stroke="white" stroke-width="2"/>
<line x1="210.013" y1="99.842" x2="214.013" y2="74.842" stroke="white" stroke-width="2"/>
<line x1="203.243" y1="39.9701" x2="103.243" y2="64.9701" stroke="white" stroke-width="2"/>
<line x1="210.608" y1="99.9199" x2="149.608" y2="73.9199" stroke="white" stroke-width="2"/>
<line x1="168.807" y1="48.59" x2="149.807" y2="74.59" stroke="white" stroke-width="2"/>
<line x1="230.2" y1="23.6" x2="221.2" y2="11.6" stroke="white" stroke-width="2"/>
<line x1="121.67" y1="39.0561" x2="141.67" y2="32.0561" stroke="white" stroke-width="2"/>
<line x1="43.2165" y1="111.379" x2="66.2165" y2="82.3786" stroke="white" stroke-width="2"/>
<line x1="88.0227" y1="110" x2="44.0227" y2="111" stroke="white" stroke-width="2"/>
<line x1="79.0246" y1="82.2203" x2="72.0246" y2="51.2203" stroke="white" stroke-width="2"/>
<line x1="70.876" y1="51.0077" x2="78.876" y2="50.0077" stroke="white" stroke-width="2"/>
<line x1="72.4808" y1="0.876812" x2="41.4808" y2="17.8768" stroke="white" stroke-width="2"/>
<line x1="44.2929" y1="40.2929" x2="66.2929" y2="18.2929" stroke="white" stroke-width="2"/>
</svg>
