<svg width="235" height="187" viewBox="0 0 235 187" fill="none" xmlns="http://www.w3.org/2000/svg">
<line x1="44.0035" y1="41.083" x2="42.0035" y2="17.083" stroke="#2E8DDC" stroke-width="2"/>
<line x1="65.0194" y1="83.8039" x2="76.0194" y2="28.8039" stroke="#2E8DDC" stroke-width="2"/>
<line x1="77.2137" y1="30.6178" x2="66.2137" y2="16.6178" stroke="#2E8DDC" stroke-width="2"/>
<line x1="71.9545" y1="1.29827" x2="66.9545" y2="17.2983" stroke="#2E8DDC" stroke-width="2"/>
<line x1="41.9616" y1="19.0007" x2="67.9616" y2="18.0007" stroke="#2E8DDC" stroke-width="2"/>
<line x1="71.9844" y1="1.82421" x2="76.9844" y2="29.8242" stroke="#2E8DDC" stroke-width="2"/>
<line x1="76.9908" y1="28.8649" x2="79.9908" y2="50.8649" stroke="#2E8DDC" stroke-width="2"/>
<line x1="79.0005" y1="81.9688" x2="80.0005" y2="49.9688" stroke="#2E8DDC" stroke-width="2"/>
<line x1="103.127" y1="78.9919" x2="64.1272" y2="83.9919" stroke="#2E8DDC" stroke-width="2"/>
<line x1="102.232" y1="78.6402" x2="97.2318" y2="72.6402" stroke="#2E8DDC" stroke-width="2"/>
<line x1="106.447" y1="68.8944" x2="98.4472" y2="72.8944" stroke="#2E8DDC" stroke-width="2"/>
<line x1="102.707" y1="64.2929" x2="107.707" y2="69.2929" stroke="#2E8DDC" stroke-width="2"/>
<line x1="102.293" y1="65.2929" x2="109.293" y2="58.2929" stroke="#2E8DDC" stroke-width="2"/>
<line x1="92.726" y1="39.3123" x2="110.726" y2="58.3123" stroke="#2E8DDC" stroke-width="2"/>
<line x1="92.2216" y1="39.0249" x2="114.222" y2="44.0249" stroke="#2E8DDC" stroke-width="2"/>
<line x1="110.026" y1="57.7751" x2="113.026" y2="44.7751" stroke="#2E8DDC" stroke-width="2"/>
<line x1="123.414" y1="38.9104" x2="112.414" y2="43.9104" stroke="#2E8DDC" stroke-width="2"/>
<line x1="123.825" y1="38.5647" x2="110.825" y2="57.5647" stroke="#2E8DDC" stroke-width="2"/>
<line x1="122" y1="35" x2="122" y2="40" stroke="#2E8DDC" stroke-width="2"/>
<line x1="121.077" y1="34.0029" x2="134.077" y2="35.0029" stroke="#2E8DDC" stroke-width="2"/>
<line x1="121.524" y1="27.1483" x2="134.524" y2="35.1483" stroke="#2E8DDC" stroke-width="2"/>
<line x1="121.141" y1="27.0101" x2="135.141" y2="29.01" stroke="#2E8DDC" stroke-width="2"/>
<line x1="134" y1="36" x2="134" y2="28" stroke="#2E8DDC" stroke-width="2"/>
<line x1="141.504" y1="32.8682" x2="134.504" y2="28.8682" stroke="#2E8DDC" stroke-width="2"/>
<line x1="141" y1="23" x2="141" y2="33" stroke="#2E8DDC" stroke-width="2"/>
<line x1="140.707" y1="22.2929" x2="147.707" y2="29.2929" stroke="#2E8DDC" stroke-width="2"/>
<line x1="140.445" y1="33.1679" x2="146.445" y2="29.1679" stroke="#2E8DDC" stroke-width="2"/>
<line x1="147" y1="36" x2="147" y2="29" stroke="#2E8DDC" stroke-width="2"/>
<line x1="146.375" y1="36.2191" x2="156.375" y2="28.2191" stroke="#2E8DDC" stroke-width="2"/>
<line x1="152.034" y1="43.7423" x2="156.034" y2="28.7423" stroke="#2E8DDC" stroke-width="2"/>
<line x1="152.152" y1="44.53" x2="147.152" y2="36.53" stroke="#2E8DDC" stroke-width="2"/>
<line x1="152.804" y1="44.9806" x2="122.804" y2="38.9806" stroke="#2E8DDC" stroke-width="2"/>
<line x1="160.316" y1="41.9487" x2="151.316" y2="44.9487" stroke="#2E8DDC" stroke-width="2"/>
<line x1="159.747" y1="41.3356" x2="167.747" y2="50.3356" stroke="#2E8DDC" stroke-width="2"/>
<line x1="153.336" y1="45.0583" x2="167.336" y2="50.0583" stroke="#2E8DDC" stroke-width="2"/>
<line x1="166.694" y1="50.048" x2="194.694" y2="41.048" stroke="#2E8DDC" stroke-width="2"/>
<line x1="190.949" y1="26.6838" x2="195.949" y2="41.6838" stroke="#2E8DDC" stroke-width="2"/>
<line x1="190.569" y1="26.1778" x2="203.569" y2="35.1778" stroke="#2E8DDC" stroke-width="2"/>
<line x1="196.354" y1="40.2366" x2="209.354" y2="29.2366" stroke="#2E8DDC" stroke-width="2"/>
<line x1="209" y1="24" x2="209" y2="30" stroke="#2E8DDC" stroke-width="2"/>
<line x1="204.781" y1="19.3753" x2="208.781" y2="24.3753" stroke="#2E8DDC" stroke-width="2"/>
<line x1="204.243" y1="19.0299" x2="216.243" y2="22.0299" stroke="#2E8DDC" stroke-width="2"/>
<line x1="208.725" y1="24.0385" x2="215.725" y2="22.0385" stroke="#2E8DDC" stroke-width="2"/>
<line x1="221.844" y1="11.5369" x2="214.844" y2="22.5369" stroke="#2E8DDC" stroke-width="2"/>
<line x1="230.876" y1="23.9923" x2="214.876" y2="21.9923" stroke="#2E8DDC" stroke-width="2"/>
<line x1="229.99" y1="23.8586" x2="231.99" y2="37.8586" stroke="#2E8DDC" stroke-width="2"/>
<line x1="215.707" y1="21.2929" x2="231.707" y2="37.2929" stroke="#2E8DDC" stroke-width="2"/>
<line x1="209.509" y1="24.1391" x2="231.509" y2="37.1391" stroke="#2E8DDC" stroke-width="2"/>
<line x1="208.291" y1="30.0433" x2="231.291" y2="37.0433" stroke="#2E8DDC" stroke-width="2"/>
<line x1="229.017" y1="52.8157" x2="232.017" y2="36.8157" stroke="#2E8DDC" stroke-width="2"/>
<line x1="229.293" y1="53.7071" x2="207.293" y2="31.7071" stroke="#2E8DDC" stroke-width="2"/>
<line x1="228.707" y1="52.7071" x2="220.707" y2="60.7071" stroke="#2E8DDC" stroke-width="2"/>
<line x1="206.901" y1="30.5653" x2="220.901" y2="59.5653" stroke="#2E8DDC" stroke-width="2"/>
<line x1="210.909" y1="61.0041" x2="221.909" y2="60.0041" stroke="#2E8DDC" stroke-width="2"/>
<line x1="210.005" y1="62.0995" x2="207.005" y2="32.0995" stroke="#2E8DDC" stroke-width="2"/>
<line x1="210.156" y1="62.5369" x2="196.156" y2="40.5369" stroke="#2E8DDC" stroke-width="2"/>
<line x1="210.832" y1="60.5547" x2="204.832" y2="69.5547" stroke="#2E8DDC" stroke-width="2"/>
<line x1="169.259" y1="50.0342" x2="210.259" y2="61.0342" stroke="#2E8DDC" stroke-width="2"/>
<line x1="167.438" y1="50.101" x2="206.438" y2="69.101" stroke="#2E8DDC" stroke-width="2"/>
<line x1="206.008" y1="76.124" x2="205.008" y2="68.124" stroke="#2E8DDC" stroke-width="2"/>
<line x1="214.713" y1="77.9578" x2="204.713" y2="74.9578" stroke="#2E8DDC" stroke-width="2"/>
<line x1="226.316" y1="73.9487" x2="214.316" y2="77.9487" stroke="#2E8DDC" stroke-width="2"/>
<line x1="227.181" y1="84.4265" x2="234.181" y2="74.4265" stroke="#2E8DDC" stroke-width="2"/>
<line x1="225.124" y1="74.0077" x2="233.124" y2="75.0077" stroke="#2E8DDC" stroke-width="2"/>
<line x1="227.016" y1="85.1789" x2="225.016" y2="74.1789" stroke="#2E8DDC" stroke-width="2"/>
<line x1="227.504" y1="85.8682" x2="213.504" y2="77.8682" stroke="#2E8DDC" stroke-width="2"/>
<line x1="210.341" y1="99.2474" x2="226.341" y2="85.2474" stroke="#2E8DDC" stroke-width="2"/>
<line x1="210.598" y1="98.8403" x2="200.876" y2="116.483" stroke="#2E8DDC" stroke-width="2"/>
<line x1="147.612" y1="74.209" x2="200.612" y2="115.209" stroke="#2E8DDC" stroke-width="2"/>
<line x1="192.2" y1="127.4" x2="201.2" y2="115.4" stroke="#2E8DDC" stroke-width="2"/>
<line x1="192.223" y1="128.63" x2="149.223" y2="75.63" stroke="#2E8DDC" stroke-width="2"/>
<line x1="191.351" y1="127.936" x2="175.351" y2="133.936" stroke="#2E8DDC" stroke-width="2"/>
<line x1="176.737" y1="133.676" x2="165.737" y2="145.676" stroke="#2E8DDC" stroke-width="2"/>
<line x1="116.734" y1="91.3211" x2="165.734" y2="144.321" stroke="#2E8DDC" stroke-width="2"/>
<line x1="116.849" y1="91.4713" x2="154.849" y2="152.471" stroke="#2E8DDC" stroke-width="2"/>
<line x1="88.5882" y1="104.191" x2="154.588" y2="152.191" stroke="#2E8DDC" stroke-width="2"/>
<line x1="166.524" y1="144.852" x2="153.524" y2="152.852" stroke="#2E8DDC" stroke-width="2"/>
<line x1="154" y1="158" x2="154" y2="152" stroke="#2E8DDC" stroke-width="2"/>
<line x1="181.459" y1="174.841" x2="153.459" y2="156.841" stroke="#2E8DDC" stroke-width="2"/>
<line x1="194.664" y1="179.942" x2="180.664" y2="174.942" stroke="#2E8DDC" stroke-width="2"/>
<line x1="195.928" y1="179.371" x2="193.928" y2="184.371" stroke="#2E8DDC" stroke-width="2"/>
<line x1="172.955" y1="185.001" x2="194.955" y2="184.001" stroke="#2E8DDC" stroke-width="2"/>
<line x1="181.007" y1="174.597" x2="193.606" y2="184.205" stroke="#2E8DDC" stroke-width="2"/>
<line x1="181.774" y1="174.633" x2="172.774" y2="185.633" stroke="#2E8DDC" stroke-width="2"/>
<line x1="170.949" y1="178.684" x2="172.949" y2="184.684" stroke="#2E8DDC" stroke-width="2"/>
<line x1="169.658" y1="178.06" x2="180.658" y2="174.06" stroke="#2E8DDC" stroke-width="2"/>
<line x1="171.451" y1="178.836" x2="136.451" y2="155.836" stroke="#2E8DDC" stroke-width="2"/>
<line x1="181.594" y1="175.914" x2="136.594" y2="155.914" stroke="#2E8DDC" stroke-width="2"/>
<line x1="154.945" y1="156.998" x2="136.945" y2="155.998" stroke="#2E8DDC" stroke-width="2"/>
<line x1="154.282" y1="150.959" x2="137.282" y2="155.959" stroke="#2E8DDC" stroke-width="2"/>
<line x1="88.7278" y1="105.314" x2="137.728" y2="157.314" stroke="#2E8DDC" stroke-width="2"/>
<line x1="127.713" y1="159.042" x2="137.713" y2="156.042" stroke="#2E8DDC" stroke-width="2"/>
<line x1="124.03" y1="178.757" x2="129.03" y2="158.757" stroke="#2E8DDC" stroke-width="2"/>
<line x1="125.141" y1="177.99" x2="104.141" y2="180.99" stroke="#2E8DDC" stroke-width="2"/>
<line x1="113.707" y1="171.707" x2="104.707" y2="180.707" stroke="#2E8DDC" stroke-width="2"/>
<line x1="112.447" y1="172.106" x2="124.447" y2="178.106" stroke="#2E8DDC" stroke-width="2"/>
<line x1="112.79" y1="172.022" x2="126.79" y2="169.022" stroke="#2E8DDC" stroke-width="2"/>
<line x1="123.994" y1="151.89" x2="125.994" y2="169.89" stroke="#2E8DDC" stroke-width="2"/>
<line x1="98.74" y1="159.034" x2="124.74" y2="152.034" stroke="#2E8DDC" stroke-width="2"/>
<line x1="99.2779" y1="159.387" x2="77.7559" y2="153.97" stroke="#2E8DDC" stroke-width="2"/>
<line x1="87.1381" y1="170.507" x2="77.1381" y2="153.507" stroke="#2E8DDC" stroke-width="2"/>
<line x1="86.9191" y1="169.394" x2="83.9191" y2="176.394" stroke="#2E8DDC" stroke-width="2"/>
<line x1="64" y1="176" x2="84" y2="176" stroke="#2E8DDC" stroke-width="2"/>
<line x1="63.4" y1="176.2" x2="75.4" y2="167.2" stroke="#2E8DDC" stroke-width="2"/>
<line x1="83.2929" y1="175.707" x2="75.2929" y2="167.707" stroke="#2E8DDC" stroke-width="2"/>
<line x1="87.8479" y1="169.988" x2="74.8479" y2="167.988" stroke="#2E8DDC" stroke-width="2"/>
<line x1="87.3291" y1="169.742" x2="66.3291" y2="150.742" stroke="#2E8DDC" stroke-width="2"/>
<line x1="77.7369" y1="153.965" x2="66.7369" y2="150.965" stroke="#2E8DDC" stroke-width="2"/>
<line x1="87.9138" y1="105.406" x2="67.9138" y2="150.406" stroke="#2E8DDC" stroke-width="2"/>
<line x1="62.9398" y1="139.658" x2="66.9398" y2="150.658" stroke="#2E8DDC" stroke-width="2"/>
<line x1="62.183" y1="140.423" x2="86.183" y2="106.423" stroke="#2E8DDC" stroke-width="2"/>
<line x1="62.6075" y1="139.794" x2="45.6074" y2="152.794" stroke="#2E8DDC" stroke-width="2"/>
<line x1="38.6585" y1="145.247" x2="46.6585" y2="152.247" stroke="#2E8DDC" stroke-width="2"/>
<line x1="34.9398" y1="134.658" x2="38.9398" y2="145.658" stroke="#2E8DDC" stroke-width="2"/>
<line x1="63.2425" y1="139.97" x2="39.2425" y2="145.97" stroke="#2E8DDC" stroke-width="2"/>
<line x1="62.1056" y1="139.447" x2="47.1056" y2="109.447" stroke="#2E8DDC" stroke-width="2"/>
<line x1="40.0165" y1="146.819" x2="47.0165" y2="108.819" stroke="#2E8DDC" stroke-width="2"/>
<line x1="38.3939" y1="119.081" x2="45.3939" y2="122.081" stroke="#2E8DDC" stroke-width="2"/>
<line x1="22.2248" y1="149.368" x2="44.2248" y2="122.368" stroke="#2E8DDC" stroke-width="2"/>
<line x1="23" y1="149" x2="12" y2="149" stroke="#2E8DDC" stroke-width="2"/>
<line x1="1.38462" y1="144.077" x2="13.3846" y2="149.077" stroke="#2E8DDC" stroke-width="2"/>
<line x1="0.599181" y1="144.084" x2="16.5992" y2="137.084" stroke="#2E8DDC" stroke-width="2"/>
<line x1="12.0513" y1="149.684" x2="16.0513" y2="137.684" stroke="#2E8DDC" stroke-width="2"/>
<line x1="23.1913" y1="148.588" x2="15.1913" y2="137.588" stroke="#2E8DDC" stroke-width="2"/>
<line x1="28.641" y1="141.933" x2="15.641" y2="136.933" stroke="#2E8DDC" stroke-width="2"/>
<line x1="27.1134" y1="141.537" x2="39.1134" y2="118.537" stroke="#2E8DDC" stroke-width="2"/>
<line x1="98.0167" y1="160.182" x2="88.0167" y2="106.182" stroke="#2E8DDC" stroke-width="2"/>
<line x1="89.8" y1="106.4" x2="128.8" y2="158.4" stroke="#2E8DDC" stroke-width="2"/>
<line x1="116.589" y1="91.1919" x2="175.589" y2="134.192" stroke="#2E8DDC" stroke-width="2"/>
<line x1="149.913" y1="75.5909" x2="175.913" y2="133.591" stroke="#2E8DDC" stroke-width="2"/>
<line x1="210.009" y1="99.8649" x2="213.009" y2="77.8649" stroke="#2E8DDC" stroke-width="2"/>
<line x1="210.018" y1="100.189" x2="205.018" y2="74.1888" stroke="#2E8DDC" stroke-width="2"/>
<line x1="149.893" y1="75.0057" x2="205.893" y2="69.0057" stroke="#2E8DDC" stroke-width="2"/>
<line x1="109.717" y1="58.041" x2="153.717" y2="45.041" stroke="#2E8DDC" stroke-width="2"/>
<line x1="111.931" y1="56.3644" x2="102.931" y2="79.3644" stroke="#2E8DDC" stroke-width="2"/>
<line x1="117.4" y1="91.8" x2="101.4" y2="79.8" stroke="#2E8DDC" stroke-width="2"/>
<line x1="117.077" y1="91.3846" x2="107.077" y2="67.3846" stroke="#2E8DDC" stroke-width="2"/>
<line x1="149.836" y1="74.9864" x2="107.836" y2="67.9864" stroke="#2E8DDC" stroke-width="2"/>
<line x1="168.153" y1="49.9882" x2="110.153" y2="58.9882" stroke="#2E8DDC" stroke-width="2"/>
<line x1="210.621" y1="99.9253" x2="110.621" y2="58.9253" stroke="#2E8DDC" stroke-width="2"/>
<line x1="168.793" y1="49.6097" x2="148.793" y2="75.6097" stroke="#2E8DDC" stroke-width="2"/>
<line x1="151.982" y1="76.0002" x2="205.981" y2="75.018" stroke="#2E8DDC" stroke-width="2"/>
<line x1="150.447" y1="74.8944" x2="88.4472" y2="105.894" stroke="#2E8DDC" stroke-width="2"/>
<line x1="230.2" y1="23.6" x2="221.2" y2="11.6" stroke="#2E8DDC" stroke-width="2"/>
<line x1="122.881" y1="38.0071" x2="147.881" y2="35.0071" stroke="#2E8DDC" stroke-width="2"/>
<line x1="147.419" y1="36.8137" x2="140.419" y2="31.8137" stroke="#2E8DDC" stroke-width="2"/>
<line x1="133.725" y1="35.0385" x2="140.725" y2="33.0385" stroke="#2E8DDC" stroke-width="2"/>
<line x1="49.3146" y1="98.2718" x2="66.3146" y2="82.2718" stroke="#2E8DDC" stroke-width="2"/>
<line x1="49.9701" y1="97.2425" x2="46.9701" y2="109.243" stroke="#2E8DDC" stroke-width="2"/>
<line x1="90.0905" y1="105.996" x2="46.0905" y2="109.996" stroke="#2E8DDC" stroke-width="2"/>
<line x1="89.8276" y1="105.985" x2="49.8276" y2="98.985" stroke="#2E8DDC" stroke-width="2"/>
<line x1="89.3394" y1="105.751" x2="64.3394" y2="83.7507" stroke="#2E8DDC" stroke-width="2"/>
<line x1="89.1195" y1="104.526" x2="103.12" y2="78.5259" stroke="#2E8DDC" stroke-width="2"/>
<line x1="79.0246" y1="82.2203" x2="72.0246" y2="51.2203" stroke="#2E8DDC" stroke-width="2"/>
<line x1="70.876" y1="51.0077" x2="78.876" y2="50.0077" stroke="#2E8DDC" stroke-width="2"/>
<line x1="72.4808" y1="0.876812" x2="41.4808" y2="17.8768" stroke="#2E8DDC" stroke-width="2"/>
<line x1="44.2929" y1="40.2929" x2="66.2929" y2="18.2929" stroke="#2E8DDC" stroke-width="2"/>
</svg>
