<svg width="520" height="396" viewBox="0 0 520 396" fill="none" xmlns="http://www.w3.org/2000/svg">
<g filter="url(#filter0_d)">
<circle cx="334" cy="213" r="175" fill="url(#paint0_linear)"/>
</g>
<path d="M328 97.8045C330 106 323.5 112.305 313.5 104.804C308 111.305 304 112 299.5 106.5C309 61.4999 297 100.805 319 84.8045C340.5 88.8045 340.5 95.9999 328 97.8045Z" fill="#00650A"/>
<path d="M310.508 52C324.508 102 326.008 95.6941 304.516 95.6941C298.717 95.6941 304.516 23 265 56.5C259.5 52 295 40 304.516 8.69414C329 -4.50003 310.508 17 310.508 52Z" fill="url(#paint1_linear)"/>
<g filter="url(#filter1_d)">
<path d="M293.814 40.2657C310.383 73.4883 329.204 53.8951 354.598 154.183C381.098 210.818 428.827 231.583 474.833 221.285C458.665 158.328 454.188 134.468 427.467 97.4254C385.052 38.6255 322.721 11.3592 293.814 40.2657Z" fill="url(#paint2_linear)"/>
<path d="M293.814 40.2657C310.383 73.4883 329.204 53.8951 354.598 154.183C381.098 210.818 428.827 231.583 474.833 221.285C458.665 158.328 454.188 134.468 427.467 97.4254C385.052 38.6255 322.721 11.3592 293.814 40.2657Z" fill="url(#paint3_linear)"/>
</g>
<g filter="url(#filter2_d)">
<path d="M288.619 42.3992C288.619 85.726 261.377 66.7774 187.005 150.248C133.086 190.092 108.048 154.726 36.5481 198.726C83.964 150.075 109.119 87.3992 154.619 59.3991C221.865 18.017 239.119 42.3994 288.619 42.3992Z" fill="url(#paint4_linear)"/>
<path d="M288.619 42.3992C288.619 85.726 261.377 66.7774 187.005 150.248C133.086 190.092 108.048 154.726 36.5481 198.726C83.964 150.075 109.119 87.3992 154.619 59.3991C221.865 18.017 239.119 42.3994 288.619 42.3992Z" fill="url(#paint5_linear)"/>
</g>
<line x1="65.4107" y1="176.192" x2="235.411" y2="52.1921" stroke="url(#paint6_linear)" stroke-width="2"/>
<line x1="451.173" y1="209.562" x2="358.173" y2="72.5617" stroke="url(#paint7_linear)" stroke-width="2"/>
<defs>
<filter id="filter0_d" x="155" y="37.9999" width="358" height="358" filterUnits="userSpaceOnUse" color-interpolation-filters="sRGB">
<feFlood flood-opacity="0" result="BackgroundImageFix"/>
<feColorMatrix in="SourceAlpha" type="matrix" values="0 0 0 0 0 0 0 0 0 0 0 0 0 0 0 0 0 0 127 0"/>
<feOffset dy="4"/>
<feGaussianBlur stdDeviation="2"/>
<feColorMatrix type="matrix" values="0 0 0 0 0 0 0 0 0 0 0 0 0 0 0 0 0 0 0.25 0"/>
<feBlend mode="normal" in2="BackgroundImageFix" result="effect1_dropShadow"/>
<feBlend mode="normal" in="SourceGraphic" in2="effect1_dropShadow" result="shape"/>
</filter>
<filter id="filter1_d" x="257" y="1.52588e-05" width="262.099" height="262.099" filterUnits="userSpaceOnUse" color-interpolation-filters="sRGB">
<feFlood flood-opacity="0" result="BackgroundImageFix"/>
<feColorMatrix in="SourceAlpha" type="matrix" values="0 0 0 0 0 0 0 0 0 0 0 0 0 0 0 0 0 0 127 0"/>
<feOffset dy="4"/>
<feGaussianBlur stdDeviation="2"/>
<feColorMatrix type="matrix" values="0 0 0 0 0 0 0 0 0 0 0 0 0 0 0 0 0 0 0.25 0"/>
<feBlend mode="normal" in2="BackgroundImageFix" result="effect1_dropShadow"/>
<feBlend mode="normal" in="SourceGraphic" in2="effect1_dropShadow" result="shape"/>
</filter>
<filter id="filter2_d" x="0" y="9.99995" width="317.127" height="207.035" filterUnits="userSpaceOnUse" color-interpolation-filters="sRGB">
<feFlood flood-opacity="0" result="BackgroundImageFix"/>
<feColorMatrix in="SourceAlpha" type="matrix" values="0 0 0 0 0 0 0 0 0 0 0 0 0 0 0 0 0 0 127 0"/>
<feOffset dy="4"/>
<feGaussianBlur stdDeviation="2"/>
<feColorMatrix type="matrix" values="0 0 0 0 0 0 0 0 0 0 0 0 0 0 0 0 0 0 0.25 0"/>
<feBlend mode="normal" in2="BackgroundImageFix" result="effect1_dropShadow"/>
<feBlend mode="normal" in="SourceGraphic" in2="effect1_dropShadow" result="shape"/>
</filter>
<linearGradient id="paint0_linear" x1="263" y1="73.9999" x2="400" y2="371" gradientUnits="userSpaceOnUse">
<stop offset="0.479167" stop-color="#E67C00"/>
<stop offset="0.9593" stop-color="#FFB800"/>
</linearGradient>
<linearGradient id="paint1_linear" x1="310.5" y1="6.99997" x2="310.5" y2="94" gradientUnits="userSpaceOnUse">
<stop stop-color="#00990F"/>
<stop offset="0.606787" stop-color="#00750C"/>
<stop offset="1" stop-color="#00650A"/>
</linearGradient>
<linearGradient id="paint2_linear" x1="448.906" y1="181.083" x2="247.924" y2="33.4851" gradientUnits="userSpaceOnUse">
<stop stop-color="#00990F"/>
<stop offset="1" stop-color="#005508"/>
</linearGradient>
<linearGradient id="paint3_linear" x1="448.906" y1="181.083" x2="247.924" y2="33.4851" gradientUnits="userSpaceOnUse">
<stop stop-color="#00990F"/>
<stop offset="1" stop-color="#005508"/>
</linearGradient>
<linearGradient id="paint4_linear" x1="95.4518" y1="93.5459" x2="363.012" y2="49.4405" gradientUnits="userSpaceOnUse">
<stop stop-color="#00990F"/>
<stop offset="1" stop-color="#005508"/>
</linearGradient>
<linearGradient id="paint5_linear" x1="95.4518" y1="93.5459" x2="363.012" y2="49.4405" gradientUnits="userSpaceOnUse">
<stop stop-color="#00990F"/>
<stop offset="1" stop-color="#005508"/>
</linearGradient>
<linearGradient id="paint6_linear" x1="151" y1="115" x2="151.589" y2="115.808" gradientUnits="userSpaceOnUse">
<stop stop-color="#00990F"/>
<stop offset="1" stop-color="white" stop-opacity="0"/>
</linearGradient>
<linearGradient id="paint7_linear" x1="405.5" y1="140.5" x2="406.327" y2="139.938" gradientUnits="userSpaceOnUse">
<stop stop-color="#00990F"/>
<stop offset="1" stop-color="white" stop-opacity="0"/>
</linearGradient>
</defs>
</svg>
