<svg width="609" height="415" viewBox="0 0 609 415" fill="none" xmlns="http://www.w3.org/2000/svg">
<path d="M552.5 415C491 415 489.311 415 335.5 415C181.689 415 148 415 69.5 415C105.5 297 171.5 297 325 297C444 297 495 297 552.5 415Z" fill="url(#paint0_linear)"/>
<path d="M355.679 166.827C337.437 285.137 345.148 328.097 294.202 314.446C243.256 300.795 242.042 192.283 296.757 90.4752C424.722 -47.0924 581.969 107.887 595.603 126.552C445.892 36.8573 368.12 86.1408 355.679 166.827Z" fill="url(#paint1_linear)"/>
<path d="M252.478 166.827C270.72 285.137 263.009 328.097 313.955 314.446C364.901 300.795 366.115 192.283 311.4 90.4752C183.435 -47.0924 26.1881 107.887 12.5543 126.552C162.265 36.8573 240.037 86.1408 252.478 166.827Z" fill="url(#paint2_linear)"/>
<defs>
<linearGradient id="paint0_linear" x1="311" y1="297" x2="311" y2="415" gradientUnits="userSpaceOnUse">
<stop stop-color="#9A5300"/>
<stop offset="1" stop-color="#391F00"/>
</linearGradient>
<linearGradient id="paint1_linear" x1="459.437" y1="39.8493" x2="379.72" y2="337.36" gradientUnits="userSpaceOnUse">
<stop stop-color="#00650A"/>
<stop offset="1" stop-color="#30AD3D"/>
</linearGradient>
<linearGradient id="paint2_linear" x1="148.72" y1="39.8493" x2="228.437" y2="337.36" gradientUnits="userSpaceOnUse">
<stop stop-color="#00650A"/>
<stop offset="1" stop-color="#30AD3D"/>
</linearGradient>
</defs>
</svg>
