<?xml version="1.0" standalone="no"?><svg xmlns="http://www.w3.org/2000/svg" viewBox="0 0 1440 320"><path fill="#FAFAFA" fill-opacity="1" d="M0,160L40,170.7C80,181,160,203,240,218.7C320,235,400,245,480,250.7C560,256,640,256,720,245.3C800,235,880,213,960,181.3C1040,149,1120,107,1200,80C1280,53,1360,43,1400,37.3L1440,32L1440,320L1400,320C1360,320,1280,320,1200,320C1120,320,1040,320,960,320C880,320,800,320,720,320C640,320,560,320,480,320C400,320,320,320,240,320C160,320,80,320,40,320L0,320Z"></path></svg>