<svg width="230" height="230" viewBox="0 0 230 230" fill="none" xmlns="http://www.w3.org/2000/svg">
<path d="M120.983 107.185C118.705 106.726 117.016 106.122 115.916 105.504C116.073 105.125 116.224 104.757 116.371 104.399C117.578 101.464 118.516 99.1829 120.234 96.4864C122.396 93.0929 125.825 89.0199 132.618 82.4901C137.677 77.9365 144.785 75.2498 152.797 73.9905C160.806 72.7318 169.558 72.9259 177.694 73.9991C185.832 75.0727 193.252 77.0125 198.586 79.1791C201.264 80.2666 203.327 81.3759 204.684 82.4043C204.791 82.4856 204.892 82.5645 204.986 82.6409C187.321 84.5669 170.399 90.9796 156.54 100.682C149.778 105.416 140.463 107.596 132.086 107.933C127.918 108.1 124.067 107.807 120.983 107.185Z" fill="white" stroke="black" stroke-width="4"/>
<line y1="-1" x2="38.3149" y2="-1" transform="matrix(0.892349 -0.451347 0.480347 0.877078 114.794 107.208)" stroke="black" stroke-width="2"/>
<path d="M110.017 107.185C112.295 106.726 113.984 106.122 115.084 105.504C114.927 105.125 114.776 104.757 114.629 104.399C113.422 101.464 112.484 99.1829 110.766 96.4864C108.604 93.0929 105.175 89.0199 98.3825 82.4901C93.3234 77.9365 86.2154 75.2498 78.2032 73.9905C70.1944 72.7318 61.4418 72.9259 53.3064 73.9991C45.168 75.0727 37.7478 77.0125 32.4137 79.1791C29.7364 80.2666 27.6727 81.3759 26.3159 82.4043C26.2086 82.4856 26.1082 82.5645 26.0143 82.6409C43.6791 84.5669 60.6013 90.9796 74.4598 100.682C81.2216 105.416 90.5374 107.596 98.9145 107.933C103.082 108.1 106.933 107.807 110.017 107.185Z" fill="white" stroke="black" stroke-width="4"/>
<line y1="-1" x2="38.3149" y2="-1" transform="matrix(-0.892349 -0.451347 -0.480347 0.877078 116.206 107.208)" stroke="black" stroke-width="2"/>
<path d="M181.386 164.866C181.989 167.143 181.913 169.665 180.868 172.5H180.824H180.761H180.698H180.634H180.57H180.506H180.441H180.376H180.31H180.244H180.178H180.111H180.044H179.976H179.908H179.84H179.771H179.702H179.633H179.563H179.492H179.421H179.35H179.279H179.207H179.134H179.062H178.989H178.915H178.841H178.767H178.692H178.617H178.542H178.466H178.39H178.313H178.236H178.158H178.081H178.002H177.924H177.845H177.765H177.686H177.606H177.525H177.444H177.363H177.281H177.199H177.117H177.034H176.951H176.867H176.783H176.699H176.614H176.529H176.443H176.357H176.271H176.185H176.098H176.01H175.922H175.834H175.746H175.657H175.567H175.478H175.388H175.297H175.207H175.115H175.024H174.932H174.84H174.747H174.654H174.561H174.467H174.373H174.278H174.183H174.088H173.993H173.897H173.8H173.704H173.607H173.509H173.411H173.313H173.215H173.116H173.016H172.917H172.817H172.716H172.616H172.515H172.413H172.311H172.209H172.107H172.004H171.9H171.797H171.693H171.588H171.484H171.379H171.273H171.167H171.061H170.955H170.848H170.741H170.633H170.525H170.417H170.309H170.2H170.09H169.981H169.871H169.76H169.649H169.538H169.427H169.315H169.203H169.091H168.978H168.865H168.751H168.637H168.523H168.408H168.293H168.178H168.063H167.947H167.83H167.714H167.597H167.479H167.362H167.244H167.125H167.007H166.888H166.768H166.648H166.528H166.408H166.287H166.166H166.045H165.923H165.801H165.678H165.556H165.433H165.309H165.185H165.061H164.937H164.812H164.687H164.561H164.436H164.31H164.183H164.056H163.929H163.802H163.674H163.546H163.417H163.289H163.16H163.03H162.9H162.77H162.64H162.509H162.378H162.247H162.115H161.983H161.851H161.718H161.585H161.452H161.318H161.184H161.05H160.915H160.78H160.645H160.509H160.373H160.237H160.101H159.964H159.827H159.689H159.551H159.413H159.275H159.136H158.997H158.857H158.718H158.578H158.437H158.297H158.156H158.014H157.873H157.731H157.589H157.446H157.303H157.16H157.017H156.873H156.729H156.584H156.44H156.295H156.149H156.004H155.858H155.712H155.565H155.418H155.271H155.123H154.976H154.828H154.679H154.531H154.382H154.232H154.083H153.933H153.783H153.632H153.481H153.33H153.179H153.027H152.875H152.723H152.57H152.417H152.264H152.111H151.957H151.803H151.649H151.494H151.339H151.184H151.028H150.872H150.716H150.56H150.403H150.246H150.089H149.931H149.773H149.615H149.457H149.298H149.139H148.98H148.82H148.66H148.5H148.339H148.179H148.018H147.856H147.695H147.533H147.371H147.208H147.045H146.882H146.719H146.555H146.392H146.227H146.063H145.898H145.733H145.568H145.402H145.237H145.071H144.904H144.737H144.571H144.403H144.236H144.068H143.9H143.732H143.563H143.394H143.225H143.056H142.886H142.716H142.546H142.375H142.204H142.033H141.862H141.69H141.519H141.346H141.174H141.001H140.828H140.655H140.482H140.308H140.134H139.96H139.785H139.61H139.435H139.26H139.084H138.909H138.732H138.556H138.379H138.202H138.025H137.848H137.67H137.492H137.314H137.136H136.957H136.778H136.599H136.419H136.239H136.059H135.879H135.699H135.518H135.337H135.155H134.974H134.792H134.61H134.428H134.245H134.062H133.879H133.696H133.512H133.329H133.145H132.96H132.776H132.591H132.406H132.221H132.035H131.849H131.663H131.477H131.29H131.104H130.916H130.729H130.542H130.354H130.166H129.978H129.789H129.6H129.411H129.222H129.033H128.843H128.653H128.463H128.273H128.082H127.891H127.7H127.509H127.317H127.125H126.933H126.741H126.548H126.355H126.162H125.969H125.776H125.582H125.388H125.194H124.999H124.805H124.61H124.415H124.219H124.024H123.828H123.632H123.436H123.239H123.042H122.845H122.648H122.451H122.253H122.055H121.857H121.659H121.46H121.262H121.063H120.864H120.664H120.464H120.265H120.065H119.864H119.664H119.463H119.262H119.061H118.859H118.658H118.456H118.254H118.052H117.849H117.646H117.443H117.24H117.037H116.833H116.63H116.426H116.221H116.017H115.812H115.607H115.402H115.197H114.991H114.786H114.58H114.374H114.167H113.961H113.754H113.547H113.34H113.133H112.925H112.717H112.509H112.301H112.093H111.884H111.675H111.466H111.257H111.047H110.838H110.628H110.418H110.208H109.971H109.735H109.5H109.266H109.033H108.8H108.569H108.339H108.109H107.881H107.653H107.426H107.2H106.975H106.751H106.528H106.305H106.084H105.863H105.643H105.424H105.206H104.989H104.773H104.557H104.343H104.129H103.916H103.704H103.493H103.283H103.073H102.865H102.657H102.45H102.244H102.038H101.834H101.63H101.427H101.225H101.024H100.824H100.624H100.425H100.227H100.03H99.8335H99.6378H99.443H99.2489H99.0556H98.8632H98.6714H98.4805H98.2904H98.101H97.9123H97.7245H97.5374H97.3511H97.1655H96.9806H96.7966H96.6132H96.4307H96.2488H96.0677H95.8874H95.7077H95.5288H95.3507H95.1732H94.9965H94.8205H94.6452H94.4707H94.2968H94.1237H93.9512H93.7795H93.6084H93.4381H93.2685H93.0995H92.9313H92.7637H92.5968H92.4306H92.265H92.1002H91.936H91.7725H91.6096H91.4475H91.2859H91.1251H90.9649H90.8053H90.6464H90.4882H90.3306H90.1736H90.0173H89.8616H89.7065H89.5521H89.3983H89.2451H89.0926H88.9406H88.7893H88.6386H88.4885H88.339H88.1902H88.0419H87.8942H87.7472H87.6007H87.4548H87.3095H87.1648H87.0206H86.8771H86.7341H86.5917H86.4499H86.3086H86.1679H86.0278H85.8883H85.7492H85.6108H85.4729H85.3355H85.1987H85.0625H84.9268H84.7916H84.6569H84.5228H84.3893H84.2562H84.1237H83.9917H83.8602H83.7292H83.5988H83.4688H83.3394H83.2104H83.082H82.9541H82.8267H82.6997H82.5733H82.4473H82.3218H82.1968H82.0723H81.9483H81.8247H81.7016H81.579H81.4569H81.3352H81.2139H81.0932H80.9728H80.853H80.7336H80.6146H80.4961H80.378H80.2603H80.1431H80.0263H79.91H79.7941H79.6786H79.5635H79.4488H79.3346H79.2207H79.1073H78.9943H78.8817H78.7695H78.6577H78.5463H78.4352H78.3246H78.2144H78.1045H77.995H77.8859H77.7772H77.6689H77.5609H77.4533H77.3461H77.2392H77.1327H77.0265H76.9207H76.8152H76.7101H76.6054H76.5009H76.3969H76.2931H76.1897H76.0866H75.9839H75.8815H75.7794H75.6776H75.5762H75.475H75.3742H75.2737H75.1735H75.0735H74.9739H74.8746H74.7756H74.6769H74.5785H74.4803H74.3825H74.2849H74.1876H74.0905H73.9938H73.8973H73.8011H73.7052H73.6095H73.514H73.4189H73.324H73.2293H73.1349H73.0407H72.9468H72.8531H72.7596H72.6664H72.5734H72.4807H72.3881H72.2958H72.2037H72.1119H72.0202H71.9287H71.8375H71.7465H71.6556H71.565H71.4746H71.3844H71.2943H71.2045H71.1148H71.0253H70.936H70.8469H70.7579H70.6691H70.5805H70.4921H70.4038H70.3157H70.2278H70.14H70.0523H69.9648H69.8775H69.7903H69.7032H69.6163H69.5295H69.4428H69.3563H69.2699H69.1836H69.0975H69.0115H68.9256H68.8398H68.7541H68.6685H68.583H68.4977H68.4124H68.3272H68.2421H68.1571H68.0722H67.9874H67.9027H67.8181H67.7335H67.649H67.5646H67.4802H67.3959H67.3117H67.2275H67.1434H67.0594H66.9754H66.8914H66.8075H66.7237H66.6399H66.5561H66.4723H66.3886H66.305H66.2213H66.1377H66.0541H65.9705H65.8869H65.8034H65.7198H65.6363H65.5527H65.4692H65.3857H65.3021H65.2186H65.135H65.0515H64.9679H64.8843H64.8007H64.7171H64.6334H64.5497H64.466H64.3822H64.2984H64.2146H64.1307H64.0468H63.9628H63.8788H63.7947H63.7106H63.6264H63.5422H63.4578H63.3734H63.289H63.2045H63.1199H63.0352H62.9504H62.8656H62.7806H62.6956H62.6105H62.5253H62.4399H62.3545H62.269H62.1834H62.0976H62.0118H61.9258H61.8398H61.7536H61.6672H61.5808H61.4942H61.4075H61.3206H61.2336H61.1465H61.0593H60.9718H60.8843H60.7966H60.7087H60.6207H60.5325H60.4441H60.3556H60.2669H60.1781H60.0891H59.9998H59.9105H59.8209H59.7311H59.6412H59.5511H59.4608H59.3702H59.2795H59.1886H59.0975H59.0061H58.9146H58.8228H58.7309H58.6387H58.5463H58.4536H58.3608H58.2677H58.1744H58.0808H57.987H57.893H57.7987H57.7042H57.6094H57.5144H57.4191H57.3235H57.2277H57.1317H57.0353H56.9387H56.8419H56.7447H56.6473H56.5496H56.4516H56.3533H56.2548H56.1559H56.0568H55.9573H55.8576H55.7575H55.6572H55.5565H55.4555H55.3543H55.2527H55.1507H55.0485H54.9459H54.8431H54.7398H54.6363H54.5324H54.4282H54.3236H54.2187H54.1134H54.0078H53.9018H53.7955H53.6888H53.5818H53.4744H53.3666H53.2585H53.15H53.0411H52.9318H52.8222H52.7121H52.6017H52.4909H52.3797H52.2681H52.1561H52.0437H51.931H51.8178H51.7042H51.5901H51.4757H51.3609H51.2456H51.1299H51.0138H50.8972H50.7803H50.6629H50.545H50.4267H50.308H50.1888H50.0692H49.9491H49.8286H49.7076H49.5862H49.4643H49.3419H49.2191H49.0958H48.972H48.9003C47.7202 170.132 47.3382 167.966 47.5253 165.977C47.7396 163.7 48.7174 161.476 50.4167 159.302C53.8614 154.894 60.071 150.949 67.7192 147.649C82.9692 141.069 102.877 137.5 114.208 137.5C115.338 137.5 120.926 138.063 128.587 139.415C136.191 140.756 145.666 142.845 154.539 145.833C163.465 148.839 171.546 152.681 176.562 157.415C179.048 159.762 180.692 162.245 181.386 164.866Z" fill="white" stroke="black" stroke-width="4"/>
<line x1="115" y1="107" x2="115" y2="136" stroke="black" stroke-width="4"/>
</svg>
