<svg fill="none" height="512" viewBox="0 0 24 24" width="512" xmlns="http://www.w3.org/2000/svg"><g clip-rule="evenodd" fill="rgb(0,0,0)" fill-rule="evenodd"><path d="m12 4.5c-4.14214 0-7.5 3.35786-7.5 7.5 0 4.1421 3.35786 7.5 7.5 7.5 4.1421 0 7.5-3.3579 7.5-7.5 0-4.14214-3.3579-7.5-7.5-7.5zm-8.5 7.5c0-4.69442 3.80558-8.5 8.5-8.5 4.6944 0 8.5 3.80558 8.5 8.5 0 4.6944-3.8056 8.5-8.5 8.5-4.69442 0-8.5-3.8056-8.5-8.5z"/><path d="m9.5 1c0-.276142.22386-.5.5-.5h4c.2761 0 .5.223858.5.5 0 .27614-.2239.5-.5.5h-4c-.27614 0-.5-.22386-.5-.5z"/><path d="m18.0105 2.45402c.1952-.19526.5118-.19526.7071 0l2.8284 2.82842c.1953.19527.1953.51185 0 .70711s-.5119.19526-.7071 0l-2.8284-2.82843c-.1953-.19526-.1953-.51184 0-.7071z"/><path d="m23 9.5c.2761 0 .5.22386.5.5v4c0 .2761-.2239.5-.5.5s-.5-.2239-.5-.5v-4c0-.27614.2239-.5.5-.5z"/><path d="m9.5 23c0 .2761.22386.5.5.5h4c.2761 0 .5-.2239.5-.5s-.2239-.5-.5-.5h-4c-.27614 0-.5.2239-.5.5z"/><path d="m2.45402 18.0105c-.19526.1952-.19526.5118 0 .7071l2.82842 2.8284c.19527.1953.51185.1953.70711 0s.19526-.5119 0-.7071l-2.82843-2.8284c-.19526-.1953-.51184-.1953-.7071 0z"/><path d="m1 9.5c-.276142 0-.5.22386-.5.5v4c0 .2761.223857.5.5.5.27614 0 .5-.2239.5-.5v-4c0-.27614-.22386-.5-.5-.5z"/><path d="m11.5 4v-3h1v3z"/><path d="m20.1318 3.86825c.1952.19526.1952.51184 0 .70711l-4.2782 4.27819c-.1953.19527-.5119.19527-.7072 0-.1952-.19526-.1952-.51184 0-.7071l4.2782-4.2782c.1953-.19526.5119-.19526.7072 0z"/><path d="m20 11.5h3v1h-3z"/><path d="m11.5 20v3h1v-3z"/><path d="m8.14648 15.1465-4.27819 4.2782.7071.7071 4.2782-4.2782c.19526-.1953.19526-.5119 0-.7071-.19526-.1953-.51184-.1953-.70711 0z"/><path d="m21.546 18.0105c.1952.1952.1952.5118 0 .7071l-2.8284 2.8284c-.1953.1953-.5119.1953-.7072 0-.1952-.1953-.1952-.5119 0-.7071l2.8285-2.8284c.1952-.1953.5118-.1953.7071 0z"/><path d="m5.98954 2.45402c-.19526-.19526-.51184-.19526-.70711 0l-2.82842 2.82842c-.19527.19527-.19527.51185 0 .70711.19526.19526.51184.19526.7071 0l2.82843-2.82843c.19526-.19526.19526-.51184 0-.7071z"/><path d="m15.8535 15.1465 4.2782 4.2782-.7071.7071-4.2782-4.2782c-.1953-.1953-.1953-.5119 0-.7071.1953-.1953.5119-.1953.7071 0z"/><path d="m8.85352 8.14648-4.2782-4.27819-.70711.7071 4.2782 4.2782c.19526.19526.51184.19526.7071 0 .19527-.19526.19527-.51184.00001-.70711z"/><path d="m4 11.5h-3v1h3z"/><path d="m9.35355 7.64645c.19527.19526.19527.51184 0 .7071l-1 1c-.19526.19527-.51184.19527-.7071 0-.19527-.19526-.19527-.51184 0-.7071l1-1c.19526-.19527.51184-.19527.7071 0z"/><path d="m7.64645 14.6464c.19526-.1952.51184-.1952.7071 0l1 1c.19527.1953.19527.5119 0 .7072-.19526.1952-.51184.1952-.7071 0l-1-1c-.19527-.1953-.19527-.5119 0-.7072z"/><path d="m16.3536 14.6464c.1952.1953.1952.5119 0 .7072l-1 1c-.1953.1952-.5119.1952-.7072 0-.1952-.1953-.1952-.5119 0-.7072l1-1c.1953-.1952.5119-.1952.7072 0z"/><path d="m14.6464 7.64645c.1953-.19527.5119-.19527.7072 0l1 1c.1952.19526.1952.51184 0 .7071-.1953.19527-.5119.19527-.7072 0l-1-1c-.1952-.19526-.1952-.51184 0-.7071z"/></g></svg>