<svg width="230" height="230" viewBox="0 0 230 230" fill="none" xmlns="http://www.w3.org/2000/svg">
<path d="M173.541 64.8961L173.585 64.9408L173.633 64.9826L178.041 68.8664L173.637 66.0594C172.257 65.1795 170.48 65.2296 169.151 66.1857L154.856 76.4717L164.888 61.8271C165.804 60.4909 165.823 58.7345 164.937 57.3786L161.883 52.7043L166.034 57.3844L166.074 57.4292L166.116 57.4715L173.541 64.8961Z" stroke="black" stroke-width="4"/>
<path d="M55.9595 165.104L55.9148 165.059L55.8673 165.017L51.4588 161.134L55.8629 163.941C57.2432 164.82 59.0204 164.77 60.3491 163.814L74.6437 153.528L64.6117 168.173C63.6963 169.509 63.6771 171.266 64.5631 172.621L67.6173 177.296L63.4661 172.616L63.4264 172.571L63.3841 172.529L55.9595 165.104Z" stroke="black" stroke-width="4"/>
<path d="M164.854 173.791L164.809 173.835L164.767 173.883L160.884 178.291L163.691 173.887C164.57 172.507 164.52 170.73 163.564 169.401L153.278 155.106L167.923 165.138C169.259 166.054 171.016 166.073 172.371 165.187L177.046 162.133L172.366 166.284L172.321 166.324L172.279 166.366L164.854 173.791Z" stroke="black" stroke-width="4"/>
<path d="M64.6461 56.2094L64.6908 56.1647L64.7326 56.1173L68.6164 51.7088L65.8094 56.1128C64.9295 57.4932 64.9796 59.2704 65.9357 60.5991L76.2217 74.8937L61.5771 64.8617C60.2409 63.9463 58.4845 63.9271 57.1286 64.8131L52.4543 67.8672L57.1344 63.7161L57.1792 63.6764L57.2215 63.6341L64.6461 56.2094Z" stroke="black" stroke-width="4"/>
<circle cx="115" cy="116" r="63" fill="white" stroke="black" stroke-width="4"/>
<path d="M191.75 121.142V121.206L191.754 121.269L192.125 127.132L190.996 122.033C190.642 120.435 189.35 119.214 187.734 118.95L170.353 116.116L187.802 112.854C189.394 112.557 190.65 111.328 190.982 109.743L192.128 104.278L191.754 110.523L191.75 110.583V110.642V121.142Z" stroke="black" stroke-width="4"/>
<path d="M37.75 108.858V108.794L37.746 108.731L37.375 102.868L38.5042 107.967C38.8582 109.565 40.1502 110.786 41.7658 111.05L59.147 113.884L41.6979 117.146C40.1058 117.443 38.8503 118.672 38.518 120.257L37.3724 125.722L37.7464 119.477L37.75 119.417V119.358V108.858Z" stroke="black" stroke-width="4"/>
<path d="M108.608 192H108.544L108.481 192.004L102.618 192.375L107.717 191.246C109.315 190.892 110.536 189.6 110.8 187.984L113.634 170.603L116.896 188.052C117.193 189.644 118.422 190.9 120.007 191.232L125.472 192.378L119.227 192.004L119.167 192H119.108H108.608Z" stroke="black" stroke-width="4"/>
<path d="M120.892 38H120.956L121.019 37.996L126.882 37.625L121.783 38.7542C120.185 39.1082 118.964 40.4002 118.7 42.0158L115.866 59.397L112.604 41.9479C112.307 40.3558 111.078 39.1003 109.493 38.768L104.028 37.6224L110.273 37.9964L110.333 38H110.392H120.892Z" stroke="black" stroke-width="4"/>
</svg>
