<svg width="607" height="606" viewBox="0 0 607 606" fill="none" xmlns="http://www.w3.org/2000/svg">
<path d="M460.777 168.718L460.822 168.762L460.869 168.804L504.315 207.074L455.066 175.688C453.686 174.808 451.908 174.858 450.579 175.814L395.755 215.26L434.12 159.261C435.036 157.925 435.055 156.169 434.169 154.813L400.458 103.227L441.074 149.012L441.113 149.056L441.156 149.099L460.777 168.718Z" fill="#03DC0B" stroke="#9000A8" stroke-width="4"/>
<path d="M145.394 438.154L145.349 438.11L145.301 438.068L101.856 399.798L151.105 431.184C152.485 432.064 154.262 432.014 155.591 431.058L210.416 391.612L172.05 447.611C171.135 448.947 171.116 450.703 172.002 452.059L205.712 503.645L165.097 457.861L165.057 457.816L165.015 457.773L145.394 438.154Z" fill="#03DC0B" stroke="#9000A8" stroke-width="4"/>
<path d="M437.819 461.109L437.775 461.154L437.733 461.201L399.458 504.642L430.848 455.399C431.728 454.019 431.678 452.241 430.722 450.913L391.272 396.095L447.277 434.456C448.614 435.371 450.37 435.39 451.726 434.504L503.318 400.798L457.528 441.408L457.483 441.448L457.441 441.49L437.819 461.109Z" fill="#03DC0B" stroke="#9000A8" stroke-width="4"/>
<path d="M168.35 145.765L168.395 145.72L168.436 145.673L206.711 102.232L175.321 151.475C174.441 152.856 174.491 154.633 175.447 155.961L214.898 210.779L158.892 172.418C157.556 171.503 155.799 171.484 154.443 172.37L102.851 206.076L148.642 165.466L148.686 165.426L148.729 165.384L168.35 145.765Z" fill="#03DC0B" stroke="#9000A8" stroke-width="4"/>
<path d="M473.522 306.079C473.522 399.833 397.51 475.836 303.744 475.836C209.978 475.836 133.967 399.833 133.967 306.079C133.967 212.325 209.978 136.322 303.744 136.322C397.51 136.322 473.522 212.325 473.522 306.079Z" fill="#1C7C2C" stroke="#9000A8" stroke-width="4"/>
<path d="M509.86 319.667V319.731L509.864 319.794L513.521 377.573L500.892 320.558C500.538 318.96 499.246 317.739 497.631 317.475L430.969 306.605L497.698 294.134C499.291 293.836 500.546 292.608 500.878 291.023L513.523 230.711L509.864 291.802L509.86 291.862V291.922V319.667Z" fill="#03DC0B" stroke="#9000A8" stroke-width="4"/>
<path d="M96.3081 287.206V287.143L96.3041 287.08L92.6477 229.3L105.276 286.315C105.63 287.913 106.922 289.134 108.538 289.398L175.2 300.268L108.47 312.739C106.878 313.037 105.622 314.265 105.29 315.851L92.6451 376.163L96.3046 315.071L96.3081 315.011V314.951V287.206Z" fill="#03DC0B" stroke="#9000A8" stroke-width="4"/>
<path d="M286.852 510.187H286.788L286.725 510.191L228.942 513.847L285.961 501.221C287.559 500.867 288.78 499.575 289.044 497.959L299.915 431.304L312.389 498.027C312.686 499.619 313.915 500.875 315.5 501.207L375.816 513.85L314.72 510.191L314.66 510.187H314.6H286.852Z" fill="#03DC0B" stroke="#9000A8" stroke-width="4"/>
<path d="M319.317 96.686H319.38L319.443 96.682L377.227 93.0262L320.208 105.652C318.61 106.006 317.388 107.298 317.125 108.914L306.253 175.569L293.78 108.846C293.482 107.254 292.254 105.998 290.669 105.666L230.352 93.0236L291.449 96.6824L291.508 96.686H291.568H319.317Z" fill="#03DC0B" stroke="#9000A8" stroke-width="4"/>
</svg>
