<svg width="293" height="293" viewBox="0 0 293 293" fill="none" xmlns="http://www.w3.org/2000/svg">
<rect width="293" height="293" rx="146.5" fill="white"/>
<line x1="74.0035" y1="97.083" x2="72.0035" y2="73.083" stroke="#2458A7" stroke-width="2"/>
<line x1="95.0194" y1="139.804" x2="106.019" y2="84.8039" stroke="#2458A7" stroke-width="2"/>
<line x1="107.214" y1="86.6178" x2="96.2137" y2="72.6178" stroke="#2458A7" stroke-width="2"/>
<line x1="101.954" y1="57.2983" x2="96.9545" y2="73.2983" stroke="#2458A7" stroke-width="2"/>
<line x1="71.9616" y1="75.0007" x2="97.9616" y2="74.0007" stroke="#2458A7" stroke-width="2"/>
<line x1="101.984" y1="57.8242" x2="106.984" y2="85.8242" stroke="#2458A7" stroke-width="2"/>
<line x1="106.991" y1="84.8649" x2="109.991" y2="106.865" stroke="#2458A7" stroke-width="2"/>
<line x1="109" y1="137.969" x2="110" y2="105.969" stroke="#2458A7" stroke-width="2"/>
<line x1="133.127" y1="134.992" x2="94.1272" y2="139.992" stroke="#2458A7" stroke-width="2"/>
<line x1="132.232" y1="134.64" x2="127.232" y2="128.64" stroke="#2458A7" stroke-width="2"/>
<line x1="262.978" y1="132" x2="127.978" y2="129" stroke="#2458A7" stroke-width="2"/>
<line x1="132.707" y1="120.293" x2="137.707" y2="125.293" stroke="#2458A7" stroke-width="2"/>
<line x1="122.738" y1="95.3257" x2="143.738" y2="118.326" stroke="#2458A7" stroke-width="2"/>
<line x1="122.203" y1="95.0207" x2="151.203" y2="101.021" stroke="#2458A7" stroke-width="2"/>
<line x1="143.077" y1="118.615" x2="153.077" y2="94.6154" stroke="#2458A7" stroke-width="2"/>
<line x1="144.651" y1="89.2407" x2="151.651" y2="95.2407" stroke="#2458A7" stroke-width="2"/>
<line x1="145.105" y1="89.0055" x2="164.105" y2="91.0055" stroke="#2458A7" stroke-width="2"/>
<line x1="151.524" y1="83.1483" x2="164.524" y2="91.1483" stroke="#2458A7" stroke-width="2"/>
<line x1="151.196" y1="83.0194" x2="171.196" y2="87.0194" stroke="#2458A7" stroke-width="2"/>
<line x1="171" y1="75" x2="171" y2="89" stroke="#2458A7" stroke-width="2"/>
<line x1="178.084" y1="91.4008" x2="171.084" y2="75.4008" stroke="#2458A7" stroke-width="2"/>
<line x1="177.132" y1="91.5039" x2="185.132" y2="77.5039" stroke="#2458A7" stroke-width="2"/>
<line x1="186.001" y1="97.0526" x2="185.001" y2="78.0526" stroke="#2458A7" stroke-width="2"/>
<line x1="134.192" y1="121.019" x2="180.192" y2="130.019" stroke="#2458A7" stroke-width="2"/>
<line x1="242.832" y1="80.5547" x2="238.832" y2="86.5547" stroke="#2458A7" stroke-width="2"/>
<path d="M252 67.5L244.5 77.5" stroke="#2458A7" stroke-width="2"/>
<line x1="260.848" y1="79.9884" x2="234.848" y2="75.9884" stroke="#2458A7" stroke-width="2"/>
<line x1="259.99" y1="79.8586" x2="261.99" y2="93.8586" stroke="#2458A7" stroke-width="2"/>
<line x1="235.547" y1="76.163" x2="261.547" y2="93.163" stroke="#2458A7" stroke-width="2"/>
<line x1="220.275" y1="82.0385" x2="262.275" y2="94.0385" stroke="#2458A7" stroke-width="2"/>
<line x1="260.005" y1="111.895" x2="262.005" y2="92.8953" stroke="#2458A7" stroke-width="2"/>
<line x1="260.4" y1="111.8" x2="220.4" y2="81.8" stroke="#2458A7" stroke-width="2"/>
<line x1="244.757" y1="115.03" x2="260.757" y2="111.03" stroke="#2458A7" stroke-width="2"/>
<line x1="247.226" y1="114.633" x2="220.226" y2="81.6332" stroke="#2458A7" stroke-width="2"/>
<line x1="247.678" y1="113.735" x2="234.678" y2="125.735" stroke="#2458A7" stroke-width="2"/>
<line x1="151.194" y1="95.019" x2="247.194" y2="114.019" stroke="#2458A7" stroke-width="2"/>
<line x1="170.52" y1="87.1456" x2="244.52" y2="132.146" stroke="#2458A7" stroke-width="2"/>
<line x1="240.263" y1="155.324" x2="262.263" y2="131.324" stroke="#2458A7" stroke-width="2"/>
<line x1="240.641" y1="154.752" x2="233.919" y2="170.395" stroke="#2458A7" stroke-width="2"/>
<line x1="179.568" y1="131.177" x2="234.568" y2="169.177" stroke="#2458A7" stroke-width="2"/>
<line x1="221.244" y1="184.345" x2="234.244" y2="169.345" stroke="#2458A7" stroke-width="2"/>
<path d="M222 184L179 130" stroke="#2458A7" stroke-width="2"/>
<line x1="221.447" y1="183.894" x2="205.447" y2="191.894" stroke="#2458A7" stroke-width="2"/>
<line x1="205.588" y1="191.809" x2="183.588" y2="207.809" stroke="#2458A7" stroke-width="2"/>
<path d="M132 134L183.82 207.427" stroke="#2458A7" stroke-width="2"/>
<line x1="132.951" y1="134.691" x2="158.951" y2="214.691" stroke="#2458A7" stroke-width="2"/>
<line x1="218.148" y1="237.476" x2="226.148" y2="224.476" stroke="#2458A7" stroke-width="2"/>
<line x1="247.671" y1="232.944" x2="224.671" y2="224.945" stroke="#2458A7" stroke-width="2"/>
<line x1="215.035" y1="227.261" x2="205.035" y2="190.261" stroke="#2458A7" stroke-width="2"/>
<line x1="217.868" y1="237.009" x2="247.868" y2="233.009" stroke="#2458A7" stroke-width="2"/>
<line x1="213.874" y1="227.514" x2="218.874" y2="236.514" stroke="#2458A7" stroke-width="2"/>
<line x1="214.713" y1="228.042" x2="224.713" y2="225.042" stroke="#2458A7" stroke-width="2"/>
<line x1="215.445" y1="228.832" x2="182.445" y2="206.832" stroke="#2458A7" stroke-width="2"/>
<line x1="184.282" y1="206.959" x2="167.282" y2="211.959" stroke="#2458A7" stroke-width="2"/>
<line x1="157.713" y1="215.042" x2="167.713" y2="212.042" stroke="#2458A7" stroke-width="2"/>
<line x1="154.03" y1="234.757" x2="159.03" y2="214.757" stroke="#2458A7" stroke-width="2"/>
<line x1="155.141" y1="233.99" x2="134.141" y2="236.99" stroke="#2458A7" stroke-width="2"/>
<line x1="143.707" y1="227.707" x2="134.707" y2="236.707" stroke="#2458A7" stroke-width="2"/>
<line x1="142.447" y1="228.106" x2="154.447" y2="234.106" stroke="#2458A7" stroke-width="2"/>
<line x1="142.79" y1="228.022" x2="156.79" y2="225.022" stroke="#2458A7" stroke-width="2"/>
<line x1="153.994" y1="207.89" x2="155.994" y2="225.89" stroke="#2458A7" stroke-width="2"/>
<line x1="128.74" y1="215.034" x2="154.74" y2="208.034" stroke="#2458A7" stroke-width="2"/>
<line x1="129.278" y1="215.387" x2="107.756" y2="209.97" stroke="#2458A7" stroke-width="2"/>
<line x1="117.138" y1="226.507" x2="107.138" y2="209.507" stroke="#2458A7" stroke-width="2"/>
<line x1="116.919" y1="225.394" x2="113.919" y2="232.394" stroke="#2458A7" stroke-width="2"/>
<line x1="94" y1="232" x2="114" y2="232" stroke="#2458A7" stroke-width="2"/>
<line x1="93.4" y1="232.2" x2="105.4" y2="223.2" stroke="#2458A7" stroke-width="2"/>
<line x1="113.293" y1="231.707" x2="105.293" y2="223.707" stroke="#2458A7" stroke-width="2"/>
<line x1="117.848" y1="225.988" x2="104.848" y2="223.988" stroke="#2458A7" stroke-width="2"/>
<line x1="117.329" y1="225.742" x2="96.3291" y2="206.742" stroke="#2458A7" stroke-width="2"/>
<line x1="107.737" y1="209.965" x2="96.7369" y2="206.965" stroke="#2458A7" stroke-width="2"/>
<line x1="132.897" y1="135.442" x2="97.8969" y2="206.442" stroke="#2458A7" stroke-width="2"/>
<line x1="92.507" y1="198.862" x2="75.507" y2="208.862" stroke="#2458A7" stroke-width="2"/>
<path d="M46 193.5L76.4856 208.126" stroke="#2458A7" stroke-width="2"/>
<line x1="97.1331" y1="207.498" x2="74.1331" y2="167.498" stroke="#2458A7" stroke-width="2"/>
<line x1="76.0011" y1="208.048" x2="74.0011" y2="166.048" stroke="#2458A7" stroke-width="2"/>
<line x1="52.129" y1="205.509" x2="74.129" y2="166.509" stroke="#2458A7" stroke-width="2"/>
<line x1="53" y1="205" x2="42" y2="205" stroke="#2458A7" stroke-width="2"/>
<line x1="31.3846" y1="200.077" x2="43.3846" y2="205.077" stroke="#2458A7" stroke-width="2"/>
<line x1="30.5992" y1="200.084" x2="46.5992" y2="193.084" stroke="#2458A7" stroke-width="2"/>
<line x1="42.0513" y1="205.684" x2="46.0513" y2="193.684" stroke="#2458A7" stroke-width="2"/>
<line x1="53.1913" y1="204.588" x2="45.1913" y2="193.588" stroke="#2458A7" stroke-width="2"/>
<path d="M56.5 199L74.1232 166.519" stroke="#2458A7" stroke-width="2"/>
<line x1="128.019" y1="216.192" x2="118.019" y2="165.192" stroke="#2458A7" stroke-width="2"/>
<line x1="94.7564" y1="139.346" x2="158.756" y2="213.346" stroke="#2458A7" stroke-width="2"/>
<line x1="137.696" y1="125.282" x2="205.696" y2="191.282" stroke="#2458A7" stroke-width="2"/>
<line x1="178.914" y1="130.595" x2="205.914" y2="191.595" stroke="#2458A7" stroke-width="2"/>
<line x1="240.013" y1="155.842" x2="244.013" y2="130.842" stroke="#2458A7" stroke-width="2"/>
<line x1="233.243" y1="95.9701" x2="133.243" y2="120.97" stroke="#2458A7" stroke-width="2"/>
<line x1="240.608" y1="155.92" x2="179.608" y2="129.92" stroke="#2458A7" stroke-width="2"/>
<line x1="198.807" y1="104.59" x2="179.807" y2="130.59" stroke="#2458A7" stroke-width="2"/>
<line x1="260.2" y1="79.6" x2="251.2" y2="67.6" stroke="#2458A7" stroke-width="2"/>
<line x1="151.67" y1="95.0561" x2="171.67" y2="88.0561" stroke="#2458A7" stroke-width="2"/>
<line x1="73.2165" y1="167.379" x2="96.2165" y2="138.379" stroke="#2458A7" stroke-width="2"/>
<line x1="118.023" y1="166" x2="74.0227" y2="167" stroke="#2458A7" stroke-width="2"/>
<line x1="109.025" y1="138.22" x2="102.025" y2="107.22" stroke="#2458A7" stroke-width="2"/>
<line x1="100.876" y1="107.008" x2="108.876" y2="106.008" stroke="#2458A7" stroke-width="2"/>
<line x1="102.481" y1="56.8768" x2="71.4808" y2="73.8768" stroke="#2458A7" stroke-width="2"/>
<line x1="74.2929" y1="96.2929" x2="96.2929" y2="74.2929" stroke="#2458A7" stroke-width="2"/>
</svg>
