<svg width="230" height="230" viewBox="0 0 230 230" fill="none" xmlns="http://www.w3.org/2000/svg">
<path d="M117.017 146.185C119.295 145.726 120.984 145.122 122.084 144.504C121.927 144.125 121.776 143.757 121.629 143.399C120.422 140.464 119.484 138.183 117.766 135.486C115.604 132.093 112.175 128.02 105.382 121.49C100.323 116.936 93.2154 114.25 85.2032 112.991C77.1944 111.732 68.4418 111.926 60.3064 112.999C52.168 114.073 44.7478 116.013 39.4137 118.179C36.7364 119.267 34.6727 120.376 33.3159 121.404C33.2086 121.486 33.1082 121.564 33.0143 121.641C50.6791 123.567 67.6013 129.98 81.4598 139.682C88.2216 144.416 97.5374 146.596 105.914 146.933C110.082 147.1 113.933 146.807 117.017 146.185Z" fill="white" stroke="black" stroke-width="4"/>
<line y1="-1" x2="38.3149" y2="-1" transform="matrix(-0.892349 -0.451347 -0.480347 0.877078 123.206 146.208)" stroke="black" stroke-width="2"/>
<path d="M190.386 181.866C190.989 184.143 190.913 186.665 189.868 189.5H189.824H189.761H189.698H189.634H189.57H189.506H189.441H189.376H189.31H189.244H189.178H189.111H189.044H188.976H188.908H188.84H188.771H188.702H188.633H188.563H188.492H188.421H188.35H188.279H188.207H188.134H188.062H187.989H187.915H187.841H187.767H187.692H187.617H187.542H187.466H187.39H187.313H187.236H187.158H187.081H187.002H186.924H186.845H186.765H186.686H186.606H186.525H186.444H186.363H186.281H186.199H186.117H186.034H185.951H185.867H185.783H185.699H185.614H185.529H185.443H185.357H185.271H185.185H185.098H185.01H184.922H184.834H184.746H184.657H184.567H184.478H184.388H184.297H184.207H184.115H184.024H183.932H183.84H183.747H183.654H183.561H183.467H183.373H183.278H183.183H183.088H182.993H182.897H182.8H182.704H182.607H182.509H182.411H182.313H182.215H182.116H182.016H181.917H181.817H181.716H181.616H181.515H181.413H181.311H181.209H181.107H181.004H180.9H180.797H180.693H180.588H180.484H180.379H180.273H180.167H180.061H179.955H179.848H179.741H179.633H179.525H179.417H179.309H179.2H179.09H178.981H178.871H178.76H178.649H178.538H178.427H178.315H178.203H178.091H177.978H177.865H177.751H177.637H177.523H177.408H177.293H177.178H177.063H176.947H176.83H176.714H176.597H176.479H176.362H176.244H176.125H176.007H175.888H175.768H175.648H175.528H175.408H175.287H175.166H175.045H174.923H174.801H174.678H174.556H174.433H174.309H174.185H174.061H173.937H173.812H173.687H173.561H173.436H173.31H173.183H173.056H172.929H172.802H172.674H172.546H172.417H172.289H172.16H172.03H171.9H171.77H171.64H171.509H171.378H171.247H171.115H170.983H170.851H170.718H170.585H170.452H170.318H170.184H170.05H169.915H169.78H169.645H169.509H169.373H169.237H169.101H168.964H168.827H168.689H168.551H168.413H168.275H168.136H167.997H167.857H167.718H167.578H167.437H167.297H167.156H167.014H166.873H166.731H166.589H166.446H166.303H166.16H166.017H165.873H165.729H165.584H165.44H165.295H165.149H165.004H164.858H164.712H164.565H164.418H164.271H164.123H163.976H163.828H163.679H163.531H163.382H163.232H163.083H162.933H162.783H162.632H162.481H162.33H162.179H162.027H161.875H161.723H161.57H161.417H161.264H161.111H160.957H160.803H160.649H160.494H160.339H160.184H160.028H159.872H159.716H159.56H159.403H159.246H159.089H158.931H158.773H158.615H158.457H158.298H158.139H157.98H157.82H157.66H157.5H157.339H157.179H157.018H156.856H156.695H156.533H156.371H156.208H156.045H155.882H155.719H155.555H155.392H155.227H155.063H154.898H154.733H154.568H154.402H154.237H154.071H153.904H153.737H153.571H153.403H153.236H153.068H152.9H152.732H152.563H152.394H152.225H152.056H151.886H151.716H151.546H151.375H151.204H151.033H150.862H150.69H150.519H150.346H150.174H150.001H149.828H149.655H149.482H149.308H149.134H148.96H148.785H148.61H148.435H148.26H148.084H147.909H147.732H147.556H147.379H147.202H147.025H146.848H146.67H146.492H146.314H146.136H145.957H145.778H145.599H145.419H145.239H145.059H144.879H144.699H144.518H144.337H144.155H143.974H143.792H143.61H143.428H143.245H143.062H142.879H142.696H142.512H142.329H142.145H141.96H141.776H141.591H141.406H141.221H141.035H140.849H140.663H140.477H140.29H140.104H139.916H139.729H139.542H139.354H139.166H138.978H138.789H138.6H138.411H138.222H138.033H137.843H137.653H137.463H137.273H137.082H136.891H136.7H136.509H136.317H136.125H135.933H135.741H135.548H135.355H135.162H134.969H134.776H134.582H134.388H134.194H133.999H133.805H133.61H133.415H133.219H133.024H132.828H132.632H132.436H132.239H132.042H131.845H131.648H131.451H131.253H131.055H130.857H130.659H130.46H130.262H130.063H129.864H129.664H129.464H129.265H129.065H128.864H128.664H128.463H128.262H128.061H127.859H127.658H127.456H127.254H127.052H126.849H126.646H126.443H126.24H126.037H125.833H125.63H125.426H125.221H125.017H124.812H124.607H124.402H124.197H123.991H123.786H123.58H123.374H123.167H122.961H122.754H122.547H122.34H122.133H121.925H121.717H121.509H121.301H121.093H120.884H120.675H120.466H120.257H120.047H119.838H119.628H119.418H119.208H118.971H118.735H118.5H118.266H118.033H117.8H117.569H117.339H117.109H116.881H116.653H116.426H116.2H115.975H115.751H115.528H115.305H115.084H114.863H114.643H114.424H114.206H113.989H113.773H113.557H113.343H113.129H112.916H112.704H112.493H112.283H112.073H111.865H111.657H111.45H111.244H111.038H110.834H110.63H110.427H110.225H110.024H109.824H109.624H109.425H109.227H109.03H108.833H108.638H108.443H108.249H108.056H107.863H107.671H107.481H107.29H107.101H106.912H106.724H106.537H106.351H106.165H105.981H105.797H105.613H105.431H105.249H105.068H104.887H104.708H104.529H104.351H104.173H103.997H103.821H103.645H103.471H103.297H103.124H102.951H102.779H102.608H102.438H102.268H102.1H101.931H101.764H101.597H101.431H101.265H101.1H100.936H100.772H100.61H100.447H100.286H100.125H99.9649H99.8053H99.6464H99.4882H99.3306H99.1736H99.0173H98.8616H98.7065H98.5521H98.3983H98.2451H98.0926H97.9406H97.7893H97.6386H97.4885H97.339H97.1902H97.0419H96.8942H96.7472H96.6007H96.4548H96.3095H96.1648H96.0206H95.8771H95.7341H95.5917H95.4499H95.3086H95.1679H95.0278H94.8883H94.7492H94.6108H94.4729H94.3355H94.1987H94.0625H93.9268H93.7916H93.6569H93.5228H93.3893H93.2562H93.1237H92.9917H92.8602H92.7292H92.5988H92.4688H92.3394H92.2104H92.082H91.9541H91.8267H91.6997H91.5733H91.4473H91.3218H91.1968H91.0723H90.9483H90.8247H90.7016H90.579H90.4569H90.3352H90.2139H90.0932H89.9728H89.853H89.7336H89.6146H89.4961H89.378H89.2603H89.1431H89.0263H88.91H88.7941H88.6786H88.5635H88.4488H88.3346H88.2207H88.1073H87.9943H87.8817H87.7695H87.6577H87.5463H87.4352H87.3246H87.2144H87.1045H86.995H86.8859H86.7772H86.6689H86.5609H86.4533H86.3461H86.2392H86.1327H86.0265H85.9207H85.8152H85.7101H85.6054H85.5009H85.3969H85.2931H85.1897H85.0866H84.9839H84.8815H84.7794H84.6776H84.5762H84.475H84.3742H84.2737H84.1735H84.0735H83.9739H83.8746H83.7756H83.6769H83.5785H83.4803H83.3825H83.2849H83.1876H83.0905H82.9938H82.8973H82.8011H82.7052H82.6095H82.514H82.4189H82.324H82.2293H82.1349H82.0407H81.9468H81.8531H81.7596H81.6664H81.5734H81.4807H81.3881H81.2958H81.2037H81.1119H81.0202H80.9287H80.8375H80.7465H80.6556H80.565H80.4746H80.3844H80.2943H80.2045H80.1148H80.0253H79.936H79.8469H79.7579H79.6691H79.5805H79.4921H79.4038H79.3157H79.2278H79.14H79.0523H78.9648H78.8775H78.7903H78.7032H78.6163H78.5295H78.4428H78.3563H78.2699H78.1836H78.0975H78.0115H77.9256H77.8398H77.7541H77.6685H77.583H77.4977H77.4124H77.3272H77.2421H77.1571H77.0722H76.9874H76.9027H76.8181H76.7335H76.649H76.5646H76.4802H76.3959H76.3117H76.2275H76.1434H76.0594H75.9754H75.8914H75.8075H75.7237H75.6399H75.5561H75.4723H75.3886H75.305H75.2213H75.1377H75.0541H74.9705H74.8869H74.8034H74.7198H74.6363H74.5527H74.4692H74.3857H74.3021H74.2186H74.135H74.0515H73.9679H73.8843H73.8007H73.7171H73.6334H73.5497H73.466H73.3822H73.2984H73.2146H73.1307H73.0468H72.9628H72.8788H72.7947H72.7106H72.6264H72.5422H72.4578H72.3734H72.289H72.2045H72.1199H72.0352H71.9504H71.8656H71.7806H71.6956H71.6105H71.5253H71.4399H71.3545H71.269H71.1834H71.0976H71.0118H70.9258H70.8398H70.7536H70.6672H70.5808H70.4942H70.4075H70.3206H70.2336H70.1465H70.0593H69.9718H69.8843H69.7966H69.7087H69.6207H69.5325H69.4441H69.3556H69.2669H69.1781H69.0891H68.9998H68.9105H68.8209H68.7311H68.6412H68.5511H68.4608H68.3702H68.2795H68.1886H68.0975H68.0061H67.9146H67.8228H67.7309H67.6387H67.5463H67.4536H67.3608H67.2677H67.1744H67.0808H66.987H66.893H66.7987H66.7042H66.6094H66.5144H66.4191H66.3235H66.2277H66.1317H66.0353H65.9387H65.8419H65.7447H65.6473H65.5496H65.4516H65.3533H65.2548H65.1559H65.0568H64.9573H64.8576H64.7575H64.6572H64.5565H64.4555H64.3543H64.2527H64.1507H64.0485H63.9459H63.8431H63.7398H63.6363H63.5324H63.4282H63.3236H63.2187H63.1134H63.0078H62.9018H62.7955H62.6888H62.5818H62.4744H62.3666H62.2585H62.15H62.0411H61.9318H61.8222H61.7121H61.6017H61.4909H61.3797H61.2681H61.1561H61.0437H60.931H60.8178H60.7042H60.5901H60.4757H60.3609H60.2456H60.1299H60.0138H59.8972H59.7803H59.6629H59.545H59.4267H59.308H59.1888H59.0692H58.9491H58.8286H58.7076H58.5862H58.4643H58.3419H58.2191H58.0958H57.972H57.9003C56.7202 187.132 56.3382 184.966 56.5253 182.977C56.7396 180.7 57.7174 178.476 59.4167 176.302C62.8614 171.894 69.071 167.949 76.7192 164.649C91.9692 158.069 111.877 154.5 123.208 154.5C124.338 154.5 129.926 155.063 137.587 156.415C145.191 157.756 154.666 159.845 163.539 162.833C172.465 165.839 180.546 169.681 185.562 174.415C188.048 176.762 189.692 179.245 190.386 181.866Z" fill="white" stroke="black" stroke-width="4"/>
<line x1="124" y1="105" x2="124" y2="153" stroke="black" stroke-width="4"/>
<rect x="61" y="41" width="123" height="62" fill="white" stroke="black" stroke-width="4"/>
<path d="M130.898 80.8447C130.898 79.3473 130.369 78.0859 129.312 77.0605C128.27 76.0352 126.504 75.1074 124.014 74.2773C120.547 73.2194 118.016 71.8441 116.421 70.1514C114.842 68.4424 114.053 66.2777 114.053 63.6572C114.053 60.988 114.826 58.7988 116.372 57.0898C117.935 55.3809 120.075 54.3636 122.793 54.0381V48.6914H126.431V54.0625C129.165 54.4368 131.289 55.5843 132.803 57.5049C134.333 59.4255 135.098 62.054 135.098 65.3906H130.605C130.605 63.0957 130.06 61.2728 128.97 59.9219C127.879 58.571 126.406 57.8955 124.551 57.8955C122.614 57.8955 121.133 58.4001 120.107 59.4092C119.082 60.402 118.569 61.7936 118.569 63.584C118.569 65.2441 119.106 66.5706 120.181 67.5635C121.271 68.54 123.053 69.4352 125.527 70.249C128.018 71.0465 129.954 71.9336 131.338 72.9102C132.738 73.8704 133.763 74.9935 134.414 76.2793C135.081 77.5651 135.415 79.0706 135.415 80.7959C135.415 83.5465 134.585 85.7601 132.925 87.4365C131.281 89.113 128.97 90.1058 125.991 90.415V95.0781H122.378V90.415C119.351 90.1383 116.974 89.0641 115.249 87.1924C113.54 85.3044 112.686 82.749 112.686 79.5264H117.202C117.202 81.7887 117.796 83.5303 118.984 84.751C120.173 85.9717 121.857 86.582 124.038 86.582C126.17 86.582 127.847 86.0693 129.067 85.0439C130.288 84.0186 130.898 82.6188 130.898 80.8447Z" fill="black"/>
<path d="M151.5 71.5C151.5 86.4032 139.196 98.5 124 98.5C108.804 98.5 96.5 86.4032 96.5 71.5C96.5 56.5968 108.804 44.5 124 44.5C139.196 44.5 151.5 56.5968 151.5 71.5Z" stroke="black"/>
</svg>
